<svg version="1.1" id="Layer_1" xmlns="http://www.w3.org/2000/svg" xmlns:xlink="http://www.w3.org/1999/xlink" x="0px" y="0px"
	 width="100%" viewBox="0 0 1024 1024" enable-background="new 0 0 1024 1024" xml:space="preserve">
<path fill="#000000" opacity="1.000000" stroke="none" 
	d="
M481.000000,1025.000000 
	C320.666656,1025.000000 160.833328,1025.000000 1.000000,1025.000000 
	C1.000000,683.666687 1.000000,342.333344 1.000000,1.000000 
	C342.333344,1.000000 683.666687,1.000000 1025.000000,1.000000 
	C1025.000000,342.333344 1025.000000,683.666687 1025.000000,1025.000000 
	C843.833313,1025.000000 662.666687,1025.000000 481.000000,1025.000000 
M593.918396,624.446899 
	C576.217712,637.801086 558.516968,651.155334 539.730652,665.328613 
	C544.178162,665.835693 547.375122,666.449829 550.584045,666.519775 
	C560.604736,666.738464 570.344849,667.669983 579.349426,660.455811 
	C601.746887,642.511658 624.746094,625.313599 647.638428,607.994080 
	C662.030518,597.105530 677.069519,587.038452 691.097534,575.710205 
	C711.902771,558.908997 732.021545,541.259766 752.539551,524.099487 
	C757.914917,519.603699 759.695129,520.049622 763.961609,525.720337 
	C764.156067,525.978882 764.213074,526.340820 764.407654,526.599182 
	C771.155945,535.559692 777.913086,544.513489 784.680786,553.483948 
	C787.672485,551.503601 789.737610,549.776550 792.090393,548.651123 
	C797.687561,545.973816 798.822510,542.013794 797.315857,536.129822 
	C794.950623,526.893005 793.397888,517.450623 791.359009,508.126373 
	C790.705017,505.135376 790.849304,502.800964 793.456726,500.604950 
	C800.571594,494.612610 807.415405,488.299805 814.479370,482.245544 
	C821.470032,476.254028 828.598328,470.423248 835.898865,464.327759 
	C848.921387,482.404724 861.336975,499.791840 873.919800,517.057068 
	C883.867554,530.706665 893.916931,544.286194 904.194214,557.687500 
	C905.743225,559.707336 909.411804,562.278381 911.015076,561.681335 
	C916.318481,559.706421 921.473145,556.862366 926.017029,553.459961 
	C929.949402,550.515381 927.672424,546.004089 926.401917,542.443909 
	C920.272461,525.267822 913.937317,508.163910 907.546997,491.082397 
	C899.428711,469.382263 891.139099,447.746033 883.091980,426.019806 
	C882.467285,424.333282 882.379517,421.484131 883.377380,420.309387 
	C893.379822,408.533661 903.585327,396.927063 913.886841,385.409760 
	C924.535400,373.504333 934.328796,360.956055 940.873230,346.331818 
	C943.005554,341.566925 943.723755,335.847992 943.751770,330.558319 
	C943.776672,325.831696 941.183777,321.390900 935.977539,320.269165 
	C931.805542,319.370209 927.353943,318.836395 923.136230,319.252808 
	C908.842590,320.664124 895.577759,325.531860 882.982605,332.338287 
	C864.096680,342.544312 848.876709,357.485321 832.768799,371.266174 
	C830.612305,373.111115 829.171082,374.149536 825.948120,373.173492 
	C801.545166,365.783234 777.027771,358.771881 752.565247,351.577179 
	C733.450623,345.955353 714.378418,340.188568 695.251953,334.607605 
	C691.191345,333.422668 686.800049,332.984558 683.518250,336.303345 
	C679.833618,340.029510 676.645081,344.246246 672.907288,348.641663 
	C675.644531,351.004730 677.698486,353.198120 680.134216,354.817047 
	C711.654114,375.766235 743.230896,396.629730 774.783813,417.529175 
	C777.399170,419.261444 780.010925,421.011993 782.503357,422.912720 
	C784.402100,424.360657 784.877258,425.952423 783.338440,428.331146 
	C774.726624,441.643280 766.379089,455.126984 757.699280,468.393799 
	C756.753784,469.839050 754.318542,470.892212 752.472107,471.070923 
	C740.605591,472.219849 728.699646,472.957794 716.829468,474.073669 
	C710.791016,474.641327 709.429688,476.616882 708.128845,484.119110 
	C707.279907,489.015320 708.600708,492.200195 713.632812,493.929565 
	C721.183472,496.524506 728.577209,499.576080 736.146362,502.475159 
	C722.548767,521.294556 705.419373,535.992615 686.489685,551.090271 
	C686.489685,498.164612 686.489685,446.516479 686.489685,394.727417 
	C672.120728,394.727417 658.701843,394.727417 644.029663,394.727417 
	C644.029663,409.284058 643.904907,423.549316 644.067261,437.811249 
	C644.208923,450.258514 644.894653,462.701050 644.952820,475.147522 
	C645.097595,506.139801 644.989441,537.133179 645.075134,568.125916 
	C645.085876,572.022034 645.650818,575.916565 645.980652,580.085327 
	C648.542908,580.085327 650.605408,580.085327 652.966797,580.085327 
	C633.231750,594.894531 613.848816,609.439514 593.918396,624.446899 
M587.541565,401.956024 
	C575.422668,397.051086 562.872559,394.585938 549.753174,394.803894 
	C540.593872,394.956085 531.427429,394.639923 522.263855,394.598267 
	C512.634766,394.554474 503.005188,394.588440 492.634338,394.588440 
	C492.634338,456.642639 492.634338,518.272217 492.634338,580.309814 
	C504.582916,580.309814 516.408813,580.105469 528.221680,580.407959 
	C533.104797,580.533081 534.079285,578.260254 534.035217,574.164185 
	C533.929504,564.332642 534.001343,554.499207 534.001465,544.666504 
	C534.001526,533.890076 534.001526,523.113647 534.001526,512.003784 
	C538.027344,512.003784 541.672485,511.827850 545.282837,512.104797 
	C546.453491,512.194641 548.001221,513.206787 548.585388,514.242981 
	C560.309204,535.039429 571.996094,555.857971 583.449219,576.803955 
	C584.887024,579.433533 586.423523,580.307251 589.163330,580.289917 
	C599.828735,580.222168 610.494995,580.271545 621.160889,580.276733 
	C624.031311,580.278137 626.901733,580.276917 629.986633,580.276917 
	C615.209717,554.405640 600.780273,529.142761 586.841064,504.738159 
	C593.189392,500.711487 600.323120,497.543549 605.682678,492.493011 
	C615.579102,483.167358 619.938232,470.923523 620.272949,457.288116 
	C620.868042,433.043579 613.687317,411.520844 587.541565,401.956024 
M332.010254,476.468719 
	C330.000519,470.210571 327.986816,463.953674 325.981812,457.694000 
	C319.615936,437.820007 313.310730,417.926025 306.783051,398.105316 
	C306.246216,396.475250 304.230652,394.183563 302.860535,394.154419 
	C289.368042,393.867157 275.864655,393.881470 262.370148,394.127380 
	C260.393127,394.163422 257.926117,393.991425 256.830933,397.481537 
	C242.853668,442.024323 228.638153,486.492523 214.410339,530.956360 
	C209.320404,546.863037 204.034698,562.707031 198.709305,578.973755 
	C200.212524,579.391235 201.267990,579.933899 202.326584,579.940063 
	C213.991867,580.007874 225.659988,580.098938 237.319962,579.845642 
	C238.581314,579.818176 240.425873,577.889221 240.934067,576.462646 
	C245.224411,564.419128 249.266663,552.287231 253.382309,540.185181 
	C272.841370,540.185181 292.250763,540.185181 311.193176,540.185181 
	C314.777466,552.519653 318.340759,564.316711 321.565063,576.205688 
	C322.368835,579.169495 323.508911,580.137939 326.590057,580.079163 
	C337.251984,579.875549 347.920929,580.069763 358.585358,579.949402 
	C361.065430,579.921448 363.538208,579.248474 366.052429,578.866455 
	C354.624969,544.548706 343.419159,510.896637 332.010254,476.468719 
M88.480598,448.014557 
	C98.399353,467.690460 108.362076,487.344513 118.173271,507.073883 
	C119.229919,509.198730 119.898430,511.757996 119.913963,514.121216 
	C120.046593,534.286621 119.986595,554.453308 119.984322,574.619568 
	C119.984123,576.391357 119.984299,578.163147 119.984299,580.126099 
	C132.193634,580.126099 143.847504,579.802185 155.470657,580.259521 
	C161.492813,580.496460 162.150208,577.786377 162.028900,572.859070 
	C161.528748,552.543335 161.258453,532.220947 161.084015,511.899475 
	C161.063889,509.556824 161.757767,506.996704 162.817673,504.887726 
	C179.905457,470.886475 197.108383,436.943146 214.277573,402.982819 
	C215.643600,400.280853 216.954041,397.550812 218.183685,395.050598 
	C205.215302,395.050598 192.738388,395.275909 180.276657,394.939148 
	C175.324188,394.805328 172.694275,396.866058 170.656876,400.991302 
	C162.782593,416.934814 154.776291,432.813354 146.779984,448.696320 
	C144.619766,452.987122 142.321472,457.208405 140.271927,461.108856 
	C129.828018,439.671539 119.533646,418.427734 109.042534,397.281525 
	C108.396011,395.978363 106.217636,394.711639 104.718948,394.671814 
	C94.725342,394.406311 84.722755,394.474762 74.723053,394.444397 
	C70.512886,394.431641 66.302650,394.442322 61.454460,394.442322 
	C70.601883,412.634430 79.336220,430.005005 88.480598,448.014557 
M434.699890,432.108185 
	C447.473816,432.108185 460.247742,432.108185 472.806122,432.108185 
	C472.806122,419.173798 472.806122,406.799652 472.806122,394.383911 
	C430.857758,394.383911 389.515137,394.383911 348.776855,394.383911 
	C348.776855,407.136078 348.776855,419.470764 348.776855,432.213043 
	C362.952179,432.213043 376.356323,432.213043 390.156616,432.213043 
	C390.156616,481.671631 390.156616,530.712402 390.156616,580.099854 
	C403.353943,580.099854 416.148193,580.062622 428.941956,580.124878 
	C432.306030,580.141296 432.012939,577.957947 432.008698,575.730042 
	C431.983307,562.405762 431.991699,549.081543 431.989899,535.757263 
	C431.985413,502.779694 431.957336,469.802063 432.052185,436.824768 
	C432.056732,435.250977 433.150360,433.680298 434.699890,432.108185 
M689.933105,609.469910 
	C666.077820,627.586914 640.950623,644.091614 618.349304,664.810974 
	C632.479309,669.004639 640.015869,666.958801 652.585327,656.962952 
	C680.619080,634.669128 708.781128,612.536621 736.906982,590.358582 
	C743.724670,584.982666 750.604736,579.685852 757.642395,574.207703 
	C753.260803,570.313599 749.375854,566.860901 746.035583,563.892273 
	C727.309387,579.102478 708.897156,594.057739 689.933105,609.469910 
M734.567749,621.048401 
	C717.786865,635.664551 701.005981,650.280762 684.132874,664.977234 
	C694.646362,668.236328 699.981201,668.023743 709.012451,661.380676 
	C723.990356,650.363525 737.158691,637.305603 749.148376,623.138733 
	C742.164307,614.712341 742.164307,614.712341 734.567749,621.048401 
z"/>
<path fill="#FEFEFE" opacity="1.000000" stroke="none" 
	d="
M594.192139,624.215698 
	C613.848816,609.439514 633.231750,594.894531 652.966797,580.085327 
	C650.605408,580.085327 648.542908,580.085327 645.980652,580.085327 
	C645.650818,575.916565 645.085876,572.022034 645.075134,568.125916 
	C644.989441,537.133179 645.097595,506.139801 644.952820,475.147522 
	C644.894653,462.701050 644.208923,450.258514 644.067261,437.811249 
	C643.904907,423.549316 644.029663,409.284058 644.029663,394.727417 
	C658.701843,394.727417 672.120728,394.727417 686.489685,394.727417 
	C686.489685,446.516479 686.489685,498.164612 686.489685,551.090271 
	C705.419373,535.992615 722.548767,521.294556 736.146362,502.475159 
	C728.577209,499.576080 721.183472,496.524506 713.632812,493.929565 
	C708.600708,492.200195 707.279907,489.015320 708.128845,484.119110 
	C709.429688,476.616882 710.791016,474.641327 716.829468,474.073669 
	C728.699646,472.957794 740.605591,472.219849 752.472107,471.070923 
	C754.318542,470.892212 756.753784,469.839050 757.699280,468.393799 
	C766.379089,455.126984 774.726624,441.643280 783.338440,428.331146 
	C784.877258,425.952423 784.402100,424.360657 782.503357,422.912720 
	C780.010925,421.011993 777.399170,419.261444 774.783813,417.529175 
	C743.230896,396.629730 711.654114,375.766235 680.134216,354.817047 
	C677.698486,353.198120 675.644531,351.004730 672.907288,348.641663 
	C676.645081,344.246246 679.833618,340.029510 683.518250,336.303345 
	C686.800049,332.984558 691.191345,333.422668 695.251953,334.607605 
	C714.378418,340.188568 733.450623,345.955353 752.565247,351.577179 
	C777.027771,358.771881 801.545166,365.783234 825.948120,373.173492 
	C829.171082,374.149536 830.612305,373.111115 832.768799,371.266174 
	C848.876709,357.485321 864.096680,342.544312 882.982605,332.338287 
	C895.577759,325.531860 908.842590,320.664124 923.136230,319.252808 
	C927.353943,318.836395 931.805542,319.370209 935.977539,320.269165 
	C941.183777,321.390900 943.776672,325.831696 943.751770,330.558319 
	C943.723755,335.847992 943.005554,341.566925 940.873230,346.331818 
	C934.328796,360.956055 924.535400,373.504333 913.886841,385.409760 
	C903.585327,396.927063 893.379822,408.533661 883.377380,420.309387 
	C882.379517,421.484131 882.467285,424.333282 883.091980,426.019806 
	C891.139099,447.746033 899.428711,469.382263 907.546997,491.082397 
	C913.937317,508.163910 920.272461,525.267822 926.401917,542.443909 
	C927.672424,546.004089 929.949402,550.515381 926.017029,553.459961 
	C921.473145,556.862366 916.318481,559.706421 911.015076,561.681335 
	C909.411804,562.278381 905.743225,559.707336 904.194214,557.687500 
	C893.916931,544.286194 883.867554,530.706665 873.919800,517.057068 
	C861.336975,499.791840 848.921387,482.404724 835.898865,464.327759 
	C828.598328,470.423248 821.470032,476.254028 814.479370,482.245544 
	C807.415405,488.299805 800.571594,494.612610 793.456726,500.604950 
	C790.849304,502.800964 790.705017,505.135376 791.359009,508.126373 
	C793.397888,517.450623 794.950623,526.893005 797.315857,536.129822 
	C798.822510,542.013794 797.687561,545.973816 792.090393,548.651123 
	C789.737610,549.776550 787.672485,551.503601 784.680786,553.483948 
	C777.913086,544.513489 771.155945,535.559692 764.407654,526.599182 
	C764.213074,526.340820 764.156067,525.978882 763.961609,525.720337 
	C759.695129,520.049622 757.914917,519.603699 752.539551,524.099487 
	C732.021545,541.259766 711.902771,558.908997 691.097534,575.710205 
	C677.069519,587.038452 662.030518,597.105530 647.638428,607.994080 
	C624.746094,625.313599 601.746887,642.511658 579.349426,660.455811 
	C570.344849,667.669983 560.604736,666.738464 550.584045,666.519775 
	C547.375122,666.449829 544.178162,665.835693 539.730652,665.328613 
	C558.516968,651.155334 576.217712,637.801086 594.192139,624.215698 
z"/>
<path fill="#FEFEFE" opacity="1.000000" stroke="none" 
	d="
M587.922119,402.035461 
	C613.687317,411.520844 620.868042,433.043579 620.272949,457.288116 
	C619.938232,470.923523 615.579102,483.167358 605.682678,492.493011 
	C600.323120,497.543549 593.189392,500.711487 586.841064,504.738159 
	C600.780273,529.142761 615.209717,554.405640 629.986633,580.276917 
	C626.901733,580.276917 624.031311,580.278137 621.160889,580.276733 
	C610.494995,580.271545 599.828735,580.222168 589.163330,580.289917 
	C586.423523,580.307251 584.887024,579.433533 583.449219,576.803955 
	C571.996094,555.857971 560.309204,535.039429 548.585388,514.242981 
	C548.001221,513.206787 546.453491,512.194641 545.282837,512.104797 
	C541.672485,511.827850 538.027344,512.003784 534.001526,512.003784 
	C534.001526,523.113647 534.001526,533.890076 534.001465,544.666504 
	C534.001343,554.499207 533.929504,564.332642 534.035217,574.164185 
	C534.079285,578.260254 533.104797,580.533081 528.221680,580.407959 
	C516.408813,580.105469 504.582916,580.309814 492.634338,580.309814 
	C492.634338,518.272217 492.634338,456.642639 492.634338,394.588440 
	C503.005188,394.588440 512.634766,394.554474 522.263855,394.598267 
	C531.427429,394.639923 540.593872,394.956085 549.753174,394.803894 
	C562.872559,394.585938 575.422668,397.051086 587.922119,402.035461 
M576.578796,446.066040 
	C575.077148,438.848297 570.346252,433.680847 563.683105,432.315979 
	C553.822388,430.296112 543.598022,430.052063 533.944763,429.093292 
	C533.944763,445.834656 533.944763,461.171051 533.944763,476.944122 
	C541.161072,476.944122 547.649048,477.356140 554.067871,476.864899 
	C571.563049,475.526001 580.834290,462.907898 576.578796,446.066040 
z"/>
<path fill="#FEFEFE" opacity="1.000000" stroke="none" 
	d="
M332.111816,476.856659 
	C343.419159,510.896637 354.624969,544.548706 366.052429,578.866455 
	C363.538208,579.248474 361.065430,579.921448 358.585358,579.949402 
	C347.920929,580.069763 337.251984,579.875549 326.590057,580.079163 
	C323.508911,580.137939 322.368835,579.169495 321.565063,576.205688 
	C318.340759,564.316711 314.777466,552.519653 311.193176,540.185181 
	C292.250763,540.185181 272.841370,540.185181 253.382309,540.185181 
	C249.266663,552.287231 245.224411,564.419128 240.934067,576.462646 
	C240.425873,577.889221 238.581314,579.818176 237.319962,579.845642 
	C225.659988,580.098938 213.991867,580.007874 202.326584,579.940063 
	C201.267990,579.933899 200.212524,579.391235 198.709305,578.973755 
	C204.034698,562.707031 209.320404,546.863037 214.410339,530.956360 
	C228.638153,486.492523 242.853668,442.024323 256.830933,397.481537 
	C257.926117,393.991425 260.393127,394.163422 262.370148,394.127380 
	C275.864655,393.881470 289.368042,393.867157 302.860535,394.154419 
	C304.230652,394.183563 306.246216,396.475250 306.783051,398.105316 
	C313.310730,417.926025 319.615936,437.820007 325.981812,457.694000 
	C327.986816,463.953674 330.000519,470.210571 332.111816,476.856659 
M273.541534,504.014679 
	C282.677460,504.014679 291.813416,504.014679 301.496246,504.014679 
	C295.039703,482.223328 288.693848,460.805511 282.114502,438.599670 
	C275.318359,460.719299 268.719421,482.197083 262.016327,504.013885 
	C265.906067,504.013885 269.233032,504.013885 273.541534,504.014679 
z"/>
<path fill="#FEFEFE" opacity="1.000000" stroke="none" 
	d="
M88.275574,447.695068 
	C79.336220,430.005005 70.601883,412.634430 61.454460,394.442322 
	C66.302650,394.442322 70.512886,394.431641 74.723053,394.444397 
	C84.722755,394.474762 94.725342,394.406311 104.718948,394.671814 
	C106.217636,394.711639 108.396011,395.978363 109.042534,397.281525 
	C119.533646,418.427734 129.828018,439.671539 140.271927,461.108856 
	C142.321472,457.208405 144.619766,452.987122 146.779984,448.696320 
	C154.776291,432.813354 162.782593,416.934814 170.656876,400.991302 
	C172.694275,396.866058 175.324188,394.805328 180.276657,394.939148 
	C192.738388,395.275909 205.215302,395.050598 218.183685,395.050598 
	C216.954041,397.550812 215.643600,400.280853 214.277573,402.982819 
	C197.108383,436.943146 179.905457,470.886475 162.817673,504.887726 
	C161.757767,506.996704 161.063889,509.556824 161.084015,511.899475 
	C161.258453,532.220947 161.528748,552.543335 162.028900,572.859070 
	C162.150208,577.786377 161.492813,580.496460 155.470657,580.259521 
	C143.847504,579.802185 132.193634,580.126099 119.984299,580.126099 
	C119.984299,578.163147 119.984123,576.391357 119.984322,574.619568 
	C119.986595,554.453308 120.046593,534.286621 119.913963,514.121216 
	C119.898430,511.757996 119.229919,509.198730 118.173271,507.073883 
	C108.362076,487.344513 98.399353,467.690460 88.275574,447.695068 
z"/>
<path fill="#FFFFFF" opacity="1.000000" stroke="none" 
	d="
M434.218323,432.108154 
	C433.150360,433.680298 432.056732,435.250977 432.052185,436.824768 
	C431.957336,469.802063 431.985413,502.779694 431.989899,535.757263 
	C431.991699,549.081543 431.983307,562.405762 432.008698,575.730042 
	C432.012939,577.957947 432.306030,580.141296 428.941956,580.124878 
	C416.148193,580.062622 403.353943,580.099854 390.156616,580.099854 
	C390.156616,530.712402 390.156616,481.671631 390.156616,432.213043 
	C376.356323,432.213043 362.952179,432.213043 348.776855,432.213043 
	C348.776855,419.470764 348.776855,407.136078 348.776855,394.383911 
	C389.515137,394.383911 430.857758,394.383911 472.806122,394.383911 
	C472.806122,406.799652 472.806122,419.173798 472.806122,432.108185 
	C460.247742,432.108185 447.473816,432.108185 434.218323,432.108154 
z"/>
<path fill="#FCFCFC" opacity="1.000000" stroke="none" 
	d="
M690.208984,609.241455 
	C708.897156,594.057739 727.309387,579.102478 746.035583,563.892273 
	C749.375854,566.860901 753.260803,570.313599 757.642395,574.207703 
	C750.604736,579.685852 743.724670,584.982666 736.906982,590.358582 
	C708.781128,612.536621 680.619080,634.669128 652.585327,656.962952 
	C640.015869,666.958801 632.479309,669.004639 618.349304,664.810974 
	C640.950623,644.091614 666.077820,627.586914 690.208984,609.241455 
z"/>
<path fill="#FBFBFB" opacity="1.000000" stroke="none" 
	d="
M734.850342,620.830200 
	C742.164307,614.712341 742.164307,614.712341 749.148376,623.138733 
	C737.158691,637.305603 723.990356,650.363525 709.012451,661.380676 
	C699.981201,668.023743 694.646362,668.236328 684.132874,664.977234 
	C701.005981,650.280762 717.786865,635.664551 734.850342,620.830200 
z"/>
<path fill="#030303" opacity="1.000000" stroke="none" 
	d="
M576.685669,446.461060 
	C580.834290,462.907898 571.563049,475.526001 554.067871,476.864899 
	C547.649048,477.356140 541.161072,476.944122 533.944763,476.944122 
	C533.944763,461.171051 533.944763,445.834656 533.944763,429.093292 
	C543.598022,430.052063 553.822388,430.296112 563.683105,432.315979 
	C570.346252,433.680847 575.077148,438.848297 576.685669,446.461060 
z"/>
<path fill="#020202" opacity="1.000000" stroke="none" 
	d="
M273.050781,504.014282 
	C269.233032,504.013885 265.906067,504.013885 262.016327,504.013885 
	C268.719421,482.197083 275.318359,460.719299 282.114502,438.599670 
	C288.693848,460.805511 295.039703,482.223328 301.496246,504.014679 
	C291.813416,504.014679 282.677460,504.014679 273.050781,504.014282 
z"/>
</svg>