<?xml version="1.0" encoding="UTF-8"?>
<svg version="1.1" xmlns="http://www.w3.org/2000/svg" width="1024" height="1024">
<path d="M0 0 C4.98900784 6.564484 5.53191588 12.89084832 4.48828125 20.953125 C2.83450373 30.8563608 -0.37640536 39.20939706 -5.3125 47.9375 C-5.70695313 48.6382666 -6.10140625 49.3390332 -6.5078125 50.06103516 C-9.0327055 54.48062596 -11.70333 58.6491255 -14.90625 62.6171875 C-16.09978301 64.02947225 -16.09978301 64.02947225 -17 66 C-17.66 66 -18.32 66 -19 66 C-19.33 66.99 -19.66 67.98 -20 69 C-21.66215268 70.33895632 -23.32963607 71.67130142 -25 73 C-25.91807575 74.06454938 -26.81408513 75.1485124 -27.6875 76.25 C-28.450625 77.1575 -29.21375 78.065 -30 79 C-30.66 79 -31.32 79 -32 79 C-32 79.99 -32 80.98 -32 82 C-32.99 82 -33.98 82 -35 82 C-35 82.99 -35 83.98 -35 85 C-36.29002979 86.37527405 -37.63113049 87.70317626 -39 89 C-40.85113602 91.35883155 -42.6325401 93.76020712 -44.4140625 96.171875 C-44.93742188 96.77515625 -45.46078125 97.3784375 -46 98 C-46.66 98 -47.32 98 -48 98 C-51.95650366 104.33040585 -51.51062272 112.93291283 -50 120 C-49.34 120.66 -48.68 121.32 -48 122 C-47.25613565 124.33077496 -46.6085266 126.63304138 -46 129 C-45.50432326 130.89696827 -45.0040849 132.79274871 -44.5 134.6875 C-44.2628125 135.59886719 -44.025625 136.51023437 -43.78125 137.44921875 C-43.08538665 139.9847782 -43.08538665 139.9847782 -41.9140625 142.12890625 C-40.62365681 144.77037773 -40.86850094 147.10702072 -41 150 C-40.34 150 -39.68 150 -39 150 C-38.87882813 150.60328125 -38.75765625 151.2065625 -38.6328125 151.828125 C-38.38144531 153.02695312 -38.38144531 153.02695312 -38.125 154.25 C-37.96257813 155.03890625 -37.80015625 155.8278125 -37.6328125 156.640625 C-37.00581261 158.97832831 -36.1118457 160.8598069 -35 163 C-34.31526605 165.32809543 -33.65146849 167.66237777 -33 170 C-32.05317897 173.01838918 -31.02832744 176.00850199 -30 179 C-29.77231934 179.66515625 -29.54463867 180.3303125 -29.31005859 181.015625 C-28.52445327 183.30393179 -27.73176552 185.58968583 -26.9375 187.875 C-26.68000977 188.62507324 -26.42251953 189.37514648 -26.15722656 190.14794922 C-25.01907273 193.39971214 -23.92080322 196.11879518 -22 199 C-21.30899447 200.99172182 -20.64097297 202.99161804 -20 205 C-19.67 205.66 -19.34 206.32 -19 207 C-17.23855135 219.33014056 -17.07739293 228.30691005 -24.3046875 238.78125 C-28.64273772 244.45869821 -32.73720889 247.60067119 -39.875 248.74609375 C-40.57625 248.82988281 -41.2775 248.91367187 -42 249 C-43.5159375 249.2165625 -43.5159375 249.2165625 -45.0625 249.4375 C-49.31954126 248.80347258 -52.71008125 246.7555157 -56 244 C-56 243.34 -56 242.68 -56 242 C-56.99 241.67 -57.98 241.34 -59 241 C-61.38122757 238.33862801 -62.8655859 236.4032423 -64 233 C-64.66 232.67 -65.32 232.34 -66 232 C-66 231.01 -66 230.02 -66 229 C-66.99 228.67 -67.98 228.34 -69 228 C-73 223.65714286 -73 223.65714286 -73 220 C-73.99 219.67 -74.98 219.34 -76 219 C-77.6875 217.625 -77.6875 217.625 -79 216 C-79 215.01 -79 214.02 -79 213 C-79.99 213 -80.98 213 -82 213 C-82 212.01 -82 211.02 -82 210 C-82.99 209.67 -83.98 209.34 -85 209 C-89 204.65714286 -89 204.65714286 -89 201 C-89.99 200.67 -90.98 200.34 -92 200 C-92 199.01 -92 198.02 -92 197 C-92.66 197 -93.32 197 -94 197 C-96.17204 194.03812728 -97.83561997 191.49314009 -99 188 C-99.66 188 -100.32 188 -101 188 C-102.42041016 186.47119141 -102.42041016 186.47119141 -104.0390625 184.3515625 C-104.90917969 183.21460938 -104.90917969 183.21460938 -105.796875 182.0546875 C-106.70179688 180.85199219 -106.70179688 180.85199219 -107.625 179.625 C-108.23601563 178.8309375 -108.84703125 178.036875 -109.4765625 177.21875 C-114 171.26154436 -114 171.26154436 -114 169 C-116.91708924 167.01637931 -118.12380904 167.0123809 -121.75 167.375 C-122.8225 167.58125 -123.895 167.7875 -125 168 C-125.33 168.99 -125.66 169.98 -126 171 C-127.33333333 171.66666667 -128.66666667 172.33333333 -130 173 C-131.67389095 174.65941093 -133.33925815 176.3274295 -135 178 C-137.00172826 179.81951289 -139.05553881 181.57074651 -141.125 183.3125 C-141.64964844 183.76689453 -142.17429687 184.22128906 -142.71484375 184.68945312 C-146.64767387 188 -146.64767387 188 -150 188 C-150.33 188.99 -150.66 189.98 -151 191 C-151.99 191 -152.98 191 -154 191 C-154.33 191.99 -154.66 192.98 -155 194 C-155.66 194 -156.32 194 -157 194 C-157.33 194.99 -157.66 195.98 -158 197 C-158.66 197 -159.32 197 -160 197 C-160.144375 197.94875 -160.28875 198.8975 -160.4375 199.875 C-161 203 -161 203 -162 205 C-162.08362467 207.36466841 -162.10822362 209.73151125 -162.10546875 212.09765625 C-162.11893903 213.55405114 -162.13396475 215.01043232 -162.15039062 216.46679688 C-162.17309562 218.75560706 -162.18760765 221.04288109 -162.17504883 223.33178711 C-162.137552 232.64822879 -162.4449458 239.75994584 -169 247 C-169.721875 247.94875 -170.44375 248.8975 -171.1875 249.875 C-173 252 -173 252 -174.50390625 253.34765625 C-176.2829317 255.31248071 -176.87956606 257.07026696 -177.75 259.5625 C-179.33552059 263.30676785 -179.63270102 263.82290942 -183.5 265.6875 C-186.92714792 265.99349535 -188.25858661 265.97381764 -191 264 C-191.598125 265.093125 -192.19625 266.18625 -192.8125 267.3125 C-194.29044697 269.91074129 -195.69822933 272.04349493 -198 274 C-197.3503125 274.99 -197.3503125 274.99 -196.6875 276 C-195.01884925 278.96649023 -193.88929952 281.82965296 -192.765625 285.02734375 C-191.9682588 287.2350035 -191.9682588 287.2350035 -190.25 290 C-187.93989788 295.54424509 -189.67343144 301.19318357 -191.859375 306.59375 C-195.83196391 314.97428003 -200.06217665 322.73903746 -207 329 C-207.33 329.99 -207.66 330.98 -208 332 C-208.804375 332.45375 -209.60875 332.9075 -210.4375 333.375 C-213.17856578 334.75524201 -213.17856578 334.75524201 -213.91015625 337.3828125 C-216.69532961 344.07122165 -225.28699176 348.12951014 -231.55859375 351.1328125 C-235.22080856 352.4336312 -238.15175219 352.35631924 -242 352 C-242.185625 351.236875 -242.37125 350.47375 -242.5625 349.6875 C-244.31809024 346.40530956 -245.81162074 346.22107662 -249.19140625 345.01953125 C-252.14861385 343.35250926 -253.32855573 340.68524146 -254.859375 337.7421875 C-255.9594413 335.66880279 -255.9594413 335.66880279 -259 335 C-267.03740301 339.09694171 -273.09087802 345.97406251 -278.8762207 352.71875 C-282.28624424 356.58680658 -285.37706526 359.07897425 -290.11108398 361.16625977 C-292.11657152 362.05145299 -293.97634843 363.09412893 -295.875 364.1875 C-300.40858149 366.42751763 -304.94084433 367.37943668 -310 367 C-312.61354852 365.97843441 -313.8892559 364.94410641 -316 363 C-316 362.34 -316 361.68 -316 361 C-317.65 360.67 -319.3 360.34 -321 360 C-323.93665052 353.60846651 -323.18383808 346.55151425 -321 340 C-321.804375 339.87625 -322.60875 339.7525 -323.4375 339.625 C-324.7059375 339.315625 -324.7059375 339.315625 -326 339 C-326.33 338.34 -326.66 337.68 -327 337 C-331.84478671 338.27236823 -334.33303024 339.93683953 -337.6875 343.625 C-339.94921875 346.1015625 -339.94921875 346.1015625 -342 348 C-342.99 348 -343.98 348 -345 348 C-345.33 348.99 -345.66 349.98 -346 351 C-346.66 351 -347.32 351 -348 351 C-348.04125 351.721875 -348.0825 352.44375 -348.125 353.1875 C-349.3099172 356.99616244 -351.66457679 359.00713708 -355 361 C-361.59436876 363.60757122 -368.13608643 363.40808898 -375.11230469 363.42553711 C-377.36243634 363.43743358 -379.60982072 363.48667645 -381.859375 363.53710938 C-394.84418061 363.68434841 -394.84418061 363.68434841 -400.68798828 359.4140625 C-403.05335833 356.86470945 -403.52708637 354.3695096 -404 351 C-404.144375 350.030625 -404.28875 349.06125 -404.4375 348.0625 C-403.50928567 341.56499969 -398.92444073 336.12278759 -394 332 C-391.39592008 330.52559223 -388.71175169 329.26217711 -386 328 C-382.90719236 326.3833051 -381.19014359 325.23767949 -379 322.5 C-376.87451187 319.84313983 -375.02522809 318.51261404 -372 317 C-371.34 317 -370.68 317 -370 317 C-369.67 316.01 -369.34 315.02 -369 314 C-368.401875 313.71125 -367.80375 313.4225 -367.1875 313.125 C-364.29539686 311.63763267 -363.01176802 309.54429484 -361 307 C-359.01739574 305.31267723 -357.0167658 303.64633943 -355 302 C-354.154375 301.13375 -353.30875 300.2675 -352.4375 299.375 C-350.0716923 297.06985403 -347.8613927 295.61411896 -345 294 C-344.278125 293.443125 -343.55625 292.88625 -342.8125 292.3125 C-341 291 -341 291 -339 291 C-338.7525 290.4225 -338.505 289.845 -338.25 289.25 C-337 287 -337 287 -334.875 285.1875 C-332.69973621 283.03310585 -332.69973621 283.03310585 -332.4375 279.5625 C-333.14372104 275.08976676 -334.54338702 273.82813789 -338 271 C-338.70125 270.4225 -339.4025 269.845 -340.125 269.25 C-344.62732735 266.24844844 -349.78847121 266.40195571 -355 267 C-357.71107713 268.37716666 -357.71107713 268.37716666 -359 271 C-359.36141955 273.32914823 -359.69699525 275.66253478 -360 278 C-360.99 278.66 -361.98 279.32 -363 280 C-363.72965366 282.56282742 -363.72965366 282.56282742 -364 285 C-373.22550053 284.15806112 -373.22550053 284.15806112 -377.0625 283.375 C-377.701875 283.25125 -378.34125 283.1275 -379 283 C-379.33 283.33 -379.66 283.66 -380 284 C-381.134375 284.144375 -382.26875 284.28875 -383.4375 284.4375 C-387.04058997 284.64847551 -387.04058997 284.64847551 -389 287 C-394.94398144 289.68481419 -399.76754466 290.43730839 -406.2421875 290.36328125 C-407.51656174 290.36402901 -407.51656174 290.36402901 -408.81668091 290.36479187 C-410.5965613 290.36246725 -412.376446 290.35283497 -414.15625 290.33618164 C-416.88831611 290.31238401 -419.61941763 290.31565797 -422.3515625 290.32226562 C-424.08594334 290.31669472 -425.82032008 290.30958856 -427.5546875 290.30078125 C-428.37234589 290.30169266 -429.19000427 290.30260406 -430.03244019 290.30354309 C-435.76889638 290.23110362 -435.76889638 290.23110362 -438 288 C-439.65816784 287.31246699 -441.32459336 286.64438717 -443 286 C-443.33 285.67 -443.66 285.34 -444 285 C-453.23379992 284.04587601 -462.48181422 283.83512707 -471.75 284.3125 C-472.48726318 284.34714355 -473.22452637 284.38178711 -473.98413086 284.41748047 C-478.30555535 284.68853133 -481.93646186 285.55865955 -486 287 C-489.38773975 287.40990445 -492.76540482 287.63147352 -495.87109375 286.04296875 C-498.55808634 284.72658889 -500.97263642 284.44730924 -503.9375 284.0625 C-508.45434242 283.43014206 -512.77652589 282.59062267 -517.1875 281.4375 C-523.23623082 279.95647742 -529.08927331 279.57749257 -535.29370117 279.55444336 C-539.70895933 279.45073765 -543.13276004 278.68015275 -547.24609375 277.0390625 C-553.4356177 274.62801448 -559.34748825 274.16182165 -565.9375 273.8125 C-568.13428676 273.67591884 -570.33091204 273.53670802 -572.52734375 273.39453125 C-573.96194946 273.31489136 -573.96194946 273.31489136 -575.42553711 273.23364258 C-577.72586981 273.02487839 -579.78472964 272.63512464 -582 272 C-582 272.66 -582 273.32 -582 274 C-599.41410488 274.29294756 -599.41410488 274.29294756 -604 272 C-605.53458881 271.87165126 -607.07396259 271.79788678 -608.61328125 271.75390625 C-609.53173828 271.72103516 -610.45019531 271.68816406 -611.39648438 271.65429688 C-613.32866803 271.59347127 -615.26096495 271.53613589 -617.19335938 271.48242188 C-627.99475462 271.0823702 -627.99475462 271.0823702 -631.625 267.3125 C-635.90968528 260.10643839 -639 251.41060106 -639 243 C-640.65614657 242.61781233 -642.32457024 242.28604898 -644 242 C-644.33 242.33 -644.66 242.66 -645 243 C-647.0279979 243.2253331 -649.05674874 243.44767185 -651.08984375 243.62109375 C-653.2328948 243.86222227 -653.2328948 243.86222227 -655 246 C-661.10408138 247.94840098 -666.6279574 248.25224509 -673 248.125 C-673.87011719 248.11597656 -674.74023438 248.10695313 -675.63671875 248.09765625 C-677.7579342 248.07434619 -679.87900562 248.03848579 -682 248 C-682.66 249.65 -683.32 251.3 -684 253 C-685.32 253 -686.64 253 -688 253 C-688.07476563 253.58007812 -688.14953125 254.16015625 -688.2265625 254.7578125 C-689.24411246 260.80325637 -690.97542642 264.37935139 -696 268 C-698.8125 269.3125 -698.8125 269.3125 -701 270 C-701.33 270.33 -701.66 270.66 -702 271 C-704.0279979 271.2253331 -706.05674874 271.44767185 -708.08984375 271.62109375 C-710.2328948 271.86222227 -710.2328948 271.86222227 -712 274 C-714.4675293 274.25537109 -714.4675293 274.25537109 -717.57421875 274.2734375 C-718.70835205 274.29164551 -719.84248535 274.30985352 -721.01098633 274.32861328 C-722.8308606 274.35157471 -722.8308606 274.35157471 -724.6875 274.375 C-735.6979071 274.57384098 -735.6979071 274.57384098 -746.3125 277.125 C-753.86265965 279.5508953 -761.26335072 279.16916813 -769.125 278.875 C-770.38868408 278.82875488 -771.65236816 278.78250977 -772.9543457 278.73486328 C-791.4708329 277.8430557 -791.4708329 277.8430557 -800 275 C-801.33568021 275.32380126 -802.66923011 275.65657551 -804 276 C-804.66 275.67 -805.32 275.34 -806 275 C-813.31486846 273.7047621 -820.67394682 273.94992035 -828.06640625 274.12695312 C-828.91847656 274.13791016 -829.77054688 274.14886719 -830.6484375 274.16015625 C-831.79578369 274.18541382 -831.79578369 274.18541382 -832.96630859 274.21118164 C-835 274 -835 274 -838 272 C-839.98799818 271.29835358 -841.98698517 270.62627128 -844 270 C-844 269.34 -844 268.68 -844 268 C-844.99 267.67 -845.98 267.34 -847 267 C-851.16952402 260.06030764 -850.4074383 251.30860826 -850.37109375 243.54296875 C-850.37780412 242.14967356 -850.38639022 240.75638628 -850.39674377 239.3631134 C-850.43647834 233.49363313 -850.43805771 227.62423132 -850.43579102 221.75463867 C-850.43573943 218.14546534 -850.4551443 214.53677027 -850.48512459 210.92772865 C-850.49578384 208.9140155 -850.48387858 206.90022245 -850.47129822 204.88652039 C-850.56324344 193.42150947 -853.45869731 183.96237105 -859.125 174.0625 C-861.33582528 170.11342361 -863.34242808 166.2172737 -865 162 C-865.66 161.01 -866.32 160.02 -867 159 C-867 158.01 -867 157.02 -867 156 C-867.66 156 -868.32 156 -869 156 C-869.68359375 154.37239583 -870.3671875 152.74479167 -871.05078125 151.1171875 C-873.67688506 145.25978722 -876.75787922 139.61366225 -879.75 133.9375 C-880.40935547 132.68428955 -880.40935547 132.68428955 -881.08203125 131.40576172 C-884.21321217 125.46404924 -887.39363603 119.5519805 -890.625 113.6640625 C-891.9225173 111.15012274 -892.96209868 108.62878286 -894 106 C-896.80435923 100.43192443 -900.08928405 95.23954251 -903.66796875 90.140625 C-905.10643816 87.82894981 -906.04651012 85.54666285 -907 83 C-907.28101563 82.35417969 -907.56203125 81.70835937 -907.8515625 81.04296875 C-910.18199209 75.4522917 -911.40612924 70.50931399 -909.0859375 64.71875 C-907.89241858 62.53191533 -906.75003072 60.77324068 -905 59 C-902.3125 58.625 -902.3125 58.625 -899 59 C-897.53380058 58.70756611 -896.0757598 58.37304178 -894.625 58.01171875 C-888.26728886 56.67946168 -882.14787548 56.90029141 -875.6875 57.1875 C-873.9869043 57.23487305 -873.9869043 57.23487305 -872.25195312 57.28320312 C-851.45514651 58.10085535 -851.45514651 58.10085535 -844 65 C-842.26953125 67.8046875 -842.26953125 67.8046875 -840.8125 70.875 C-840.32394531 71.88304687 -839.83539062 72.89109375 -839.33203125 73.9296875 C-838.03608261 76.91683011 -836.98693579 79.89880953 -836 83 C-833.97143132 88.699312 -831.59823116 94.12346345 -828.98828125 99.58203125 C-828 102 -828 102 -828 105 C-827.34 105 -826.68 105 -826 105 C-825.5875 106.051875 -825.175 107.10375 -824.75 108.1875 C-823.30779171 111.59635596 -821.36434574 114.14647928 -819 117 C-819 117.66 -819 118.32 -819 119 C-818.01 118.67 -817.02 118.34 -816 118 C-815.505 116.515 -815.505 116.515 -815 115 C-814.34 114.67 -813.68 114.34 -813 114 C-812.52842343 112.31579796 -812.06132346 110.63016617 -811.62109375 108.9375 C-810.8256193 106.45601996 -809.49716534 104.38183054 -808.14453125 102.16796875 C-806.0608971 98.22115322 -804.66276277 93.98388804 -803.1484375 89.79296875 C-802 87 -802 87 -800 85 C-799.70351563 83.95714844 -799.40703125 82.91429687 -799.1015625 81.83984375 C-797.93197499 77.76287737 -796.32353532 74.30511358 -794.375 70.5625 C-793.88773438 69.60827148 -793.88773438 69.60827148 -793.390625 68.63476562 C-792.59928647 67.08700056 -791.8004333 65.5430813 -791 64 C-790.34 64 -789.68 64 -789 64 C-788.505 62.515 -788.505 62.515 -788 61 C-783.43129127 58.02916919 -779.48458511 57.61173577 -774.1796875 57.77734375 C-773.4397757 57.78633194 -772.69986389 57.79532013 -771.93753052 57.80458069 C-769.5828601 57.83441938 -767.22924477 57.88408233 -764.875 57.9375 C-748.83934848 58.34385923 -748.83934848 58.34385923 -733.11083984 55.44165039 C-730.09012596 54.80962733 -727.17805528 54.87000606 -724.09375 54.8671875 C-723.41437378 54.86623077 -722.73499756 54.86527405 -722.03503418 54.86428833 C-720.58927315 54.86360812 -719.14350906 54.86545135 -717.69775391 54.86962891 C-715.56274839 54.87484665 -713.42796653 54.86974943 -711.29296875 54.86328125 C-693.01993252 54.8511621 -674.92067828 56.15461856 -656.75 58 C-654.93363544 58.18010846 -653.1172292 58.35979705 -651.30078125 58.5390625 C-647.98510871 58.86870006 -644.66944487 59.19835091 -641.35449219 59.53515625 C-640.63080444 59.60750488 -639.9071167 59.67985352 -639.16149902 59.75439453 C-637.68056633 59.92266903 -636.20305153 60.12326022 -634.73010254 60.35107422 C-632.83002657 60.6421606 -630.91469413 60.82980497 -629 61 C-628.34 60.34 -627.68 59.68 -627 59 C-624.94140625 58.734375 -624.94140625 58.734375 -622.5625 58.75 C-621.38880859 58.74226563 -621.38880859 58.74226563 -620.19140625 58.734375 C-618 59 -618 59 -615 61 C-612.57066729 61.27368789 -610.12956344 61.44897183 -607.6875 61.5625 C-603.9567766 61.74439597 -600.37127286 61.93468754 -596.69140625 62.58203125 C-593.24856611 63.11669583 -591.28424842 62.13685522 -588 61 C-579.36209493 59.69225299 -570.5529623 59.66894167 -561.83789062 59.39453125 C-560.77119141 59.35714844 -559.70449219 59.31976563 -558.60546875 59.28125 C-557.64793701 59.25095703 -556.69040527 59.22066406 -555.70385742 59.18945312 C-553.05666428 59.00397034 -550.5935268 58.54392622 -548 58 C-545.93904124 57.91004801 -543.87541447 57.86987475 -541.8125 57.875 C-540.76707031 57.87242187 -539.72164062 57.86984375 -538.64453125 57.8671875 C-536 58 -536 58 -534 59 C-531.78523773 59.09712723 -529.56747645 59.12797074 -527.35058594 59.12939453 C-526.66742813 59.13114685 -525.98427032 59.13289917 -525.28041077 59.13470459 C-523.01503988 59.13911634 -520.74974672 59.1361862 -518.484375 59.1328125 C-516.90976954 59.13348605 -515.33516418 59.1344565 -513.76055908 59.13571167 C-510.45510878 59.13718798 -507.14968545 59.13503738 -503.84423828 59.13037109 C-499.61644194 59.12469252 -495.38870934 59.12794131 -491.16091537 59.13394356 C-487.90604172 59.13756694 -484.65118302 59.1364021 -481.3963089 59.13381577 C-479.8382593 59.13315044 -478.28020833 59.1339611 -476.72216034 59.13629532 C-474.53706806 59.13884893 -472.35207698 59.13494241 -470.16699219 59.12939453 C-468.30406525 59.12820114 -468.30406525 59.12820114 -466.40350342 59.12698364 C-463.00786648 59.07728453 -463.00786648 59.07728453 -459.73956299 58.42941284 C-457 58 -457 58 -454 59 C-452.61418793 59.09062549 -451.22446469 59.12788805 -449.83569336 59.12939453 C-449.00150375 59.13254669 -448.16731415 59.13569885 -447.30784607 59.13894653 C-446.4109053 59.1369223 -445.51396454 59.13489807 -444.58984375 59.1328125 C-443.2049752 59.13424759 -443.2049752 59.13424759 -441.79212952 59.13571167 C-439.84115531 59.13639204 -437.89017884 59.13454773 -435.93920898 59.13037109 C-432.94574936 59.12501476 -429.95243936 59.13032406 -426.95898438 59.13671875 C-425.06510383 59.13605806 -423.17122339 59.13477709 -421.27734375 59.1328125 C-420.37837875 59.13483673 -419.47941376 59.13686096 -418.5532074 59.13894653 C-417.72216995 59.13579437 -416.89113251 59.13264221 -416.03491211 59.12939453 C-414.93595863 59.12820114 -414.93595863 59.12820114 -413.81480408 59.12698364 C-411.89942744 59.10958519 -411.89942744 59.10958519 -410 58 C-405.75644384 57.84568887 -401.70333474 58.01233922 -397.48828125 58.48828125 C-392.1457575 58.99026932 -386.83789956 59.11467024 -381.4765625 59.17578125 C-334.38656468 59.74229022 -334.38656468 59.74229022 -325 66 C-323.948125 66.268125 -322.89625 66.53625 -321.8125 66.8125 C-314.93139935 68.95579365 -309.25916976 73.13526798 -304 78 C-304 78.66 -304 79.32 -304 80 C-303.01 80.33 -302.02 80.66 -301 81 C-297 85.34285714 -297 85.34285714 -297 89 C-296.34 89 -295.68 89 -295 89 C-293.5625 91.01171875 -293.5625 91.01171875 -292 93.6875 C-291.484375 94.55761719 -290.96875 95.42773438 -290.4375 96.32421875 C-289 99 -289 99 -287.9375 101.76953125 C-287.21627012 104.16322616 -287.21627012 104.16322616 -285 105 C-284.67 105.99 -284.34 106.98 -284 108 C-283.01 108.33 -282.02 108.66 -281 109 C-279.62804426 110.29355827 -278.28817344 111.62298702 -277 113 C-275.64097776 110.28195553 -275.80206008 108.03580396 -275.71875 104.99609375 C-275.66267578 103.17174805 -275.66267578 103.17174805 -275.60546875 101.31054688 C-275.55326172 99.39338867 -275.55326172 99.39338867 -275.5 97.4375 C-274.87221781 74.87221781 -274.87221781 74.87221781 -272 72 C-270.2609678 66.59984739 -269.5166663 62.61547759 -271 57 C-272.28725907 55.29749607 -273.62131719 53.62935241 -275 52 C-276.1875 48.8125 -276.1875 48.8125 -277 46 C-277.33 45.34 -277.66 44.68 -278 44 C-279.15984885 28.27549184 -279.15984885 28.27549184 -274 22 C-265.35869112 13.59872747 -255.39836259 12.48260862 -243.94140625 12.63671875 C-238.409886 12.8844617 -233.99083609 14.56231333 -228.97265625 16.83984375 C-225.82594981 18.0679276 -223.36061758 18.36417321 -220 18.5 C-214.13182108 18.75513821 -209.56053745 20.55268918 -204.17578125 22.796875 C-200.29737433 24.26618537 -196.52521236 24.96941743 -192.44140625 25.60546875 C-188.62006463 26.22299756 -184.71236587 26.99201158 -181.34765625 28.97265625 C-177.81696192 30.51770219 -174.17066108 30.8835197 -170.375 31.4375 C-152.83216643 34.16783357 -152.83216643 34.16783357 -150 37 C-148.46500471 37.30639234 -146.92113947 37.56849274 -145.375 37.8125 C-140.7374448 38.60238037 -136.3262142 39.74141292 -131.8125 41.0625 C-123.88875012 43.25538963 -116.19135744 43.78472122 -108 44 C-108 43.34 -108 42.68 -108 42 C-107.36191406 41.66226563 -106.72382812 41.32453125 -106.06640625 40.9765625 C-105.24011719 40.53054688 -104.41382813 40.08453125 -103.5625 39.625 C-102.73878906 39.18414062 -101.91507813 38.74328125 -101.06640625 38.2890625 C-98.86533422 37.16581441 -98.86533422 37.16581441 -98 35 C-97.01 35 -96.02 35 -95 35 C-94.67 34.01 -94.34 33.02 -94 32 C-92.29296875 30.75390625 -92.29296875 30.75390625 -90.1875 29.5625 C-87.65997435 28.07121481 -85.84453162 26.84453162 -83.75 24.75 C-81.83092649 22.83092649 -80.65031691 22.3786167 -78 22 C-78 21.34 -78 20.68 -78 20 C-76.30189246 18.62101957 -74.53964541 17.32040522 -72.75 16.0625 C-71.77546875 15.37285156 -70.8009375 14.68320312 -69.796875 13.97265625 C-68.41242188 12.99619141 -68.41242188 12.99619141 -67 12 C-66.28328125 11.42121094 -65.5665625 10.84242188 -64.828125 10.24609375 C-63 9 -63 9 -60 9 C-60 8.34 -60 7.68 -60 7 C-58.96875 6.566875 -57.9375 6.13375 -56.875 5.6875 C-54.58100657 4.70567081 -52.35940051 3.67970026 -50.125 2.5625 C-47.55912933 1.27956467 -44.98775035 0.05756838 -42.375 -1.125 C-41.27285156 -1.62386719 -41.27285156 -1.62386719 -40.1484375 -2.1328125 C-29.00241366 -6.63175303 -9.74108566 -7.55431133 0 0 Z M-304.1875 315.4375 C-305.115625 315.953125 -306.04375 316.46875 -307 317 C-307 317.66 -307 318.32 -307 319 C-307.99 319 -308.98 319 -310 319 C-310.598125 319.763125 -311.19625 320.52625 -311.8125 321.3125 C-314.26996455 324.33167074 -316.46247001 325.47243023 -320 327 C-320 327.66 -320 328.32 -320 329 C-320.99 329.495 -320.99 329.495 -322 330 C-320.515 330.99 -320.515 330.99 -319 332 C-318.34 331.01 -317.68 330.02 -317 329 C-315.00577205 328.63371323 -313.00546689 328.29868656 -311 328 C-310.67 327.34 -310.34 326.68 -310 326 C-307.9375 325.375 -307.9375 325.375 -306 325 C-306 324.34 -306 323.68 -306 323 C-305.01 322.67 -304.02 322.34 -303 322 C-303 321.34 -303 320.68 -303 320 C-302.01 319.67 -301.02 319.34 -300 319 C-298.79117904 316.99983534 -298.79117904 316.99983534 -298 315 C-301.07242053 313.59903754 -301.07242053 313.59903754 -304.1875 315.4375 Z " fill="#FDFEFE" transform="translate(944,334)"/>
<path d="M0 0 C3.28656961 5.3707357 2.62483028 11.16341255 1.3125 17.12109375 C-4.30843427 36.63041977 -16.33337806 51.44934832 -30 66 C-31.19470819 67.34781155 -32.38280844 68.70152556 -33.5625 70.0625 C-45.19838782 83.42323708 -45.19838782 83.42323708 -51.296875 89.13671875 C-51.85890625 89.75160156 -52.4209375 90.36648438 -53 91 C-53.95793457 91.85352051 -54.91586914 92.70704102 -55.90283203 93.58642578 C-57.9551415 96.52725517 -58.02926294 97.79266406 -57.52026367 101.39906311 C-56.35603825 105.84380652 -54.79816715 110.15525595 -53.2578125 114.48046875 C-52.69610381 116.13205807 -52.13722904 117.78461361 -51.58102417 119.43806458 C-50.09939782 123.81586912 -48.57803872 128.178858 -47.04846191 132.5401001 C-45.55022704 136.83527112 -44.0917917 141.14386424 -42.62890625 145.45117188 C-37.96357177 159.13468242 -33.21958566 172.78426872 -28.17871094 186.33447266 C-27.56387886 187.99698633 -26.94912124 189.65952754 -26.33444214 191.32209778 C-25.18005519 194.44227392 -24.0047357 197.55338834 -22.81619263 200.66069031 C-22.29327531 202.06561035 -21.77101114 203.47077373 -21.24951172 204.8762207 C-20.55956619 206.69389702 -20.55956619 206.69389702 -19.85568237 208.54829407 C-18.89053076 212.441584 -19.12751732 215.10860996 -20 219 C-21.11987305 220.83276367 -21.11987305 220.83276367 -22.51171875 222.16796875 C-23.02283203 222.66876953 -23.53394531 223.16957031 -24.06054688 223.68554688 C-24.59744141 224.18119141 -25.13433594 224.67683594 -25.6875 225.1875 C-26.20505859 225.69474609 -26.72261719 226.20199219 -27.25585938 226.72460938 C-35.78269932 234.91164997 -35.78269932 234.91164997 -41.0390625 235.12109375 C-44.92392747 233.65017522 -46.9044054 231.25506821 -49.375 228.0625 C-49.85340332 227.47057861 -50.33180664 226.87865723 -50.82470703 226.26879883 C-52.23088198 224.5234543 -53.61660343 222.76341643 -55 221 C-56.29143185 219.39564428 -57.58307456 217.79145827 -58.875 216.1875 C-59.50792969 215.38828125 -60.14085937 214.5890625 -60.79296875 213.765625 C-62.49031845 211.63868059 -64.20090054 209.52632863 -65.92578125 207.421875 C-72.67081702 199.18822289 -79.23408596 190.84290044 -85.671875 182.3671875 C-89.14242519 177.80099988 -92.66114126 173.27315685 -96.1875 168.75 C-101.82074706 161.52208428 -107.42387702 154.27208665 -113 147 C-116.91730928 148.65187741 -119.8907557 151.30435942 -123.0625 154.0625 C-124.23506522 155.068422 -125.40825086 156.07362121 -126.58203125 157.078125 C-127.45335693 157.82545898 -127.45335693 157.82545898 -128.34228516 158.58789062 C-131.48733605 161.26697374 -134.6990836 163.86381551 -137.90234375 166.47265625 C-141.88226144 169.71982743 -145.84772597 172.9843676 -149.8125 176.25 C-150.53018555 176.84079346 -151.24787109 177.43158691 -151.98730469 178.0402832 C-153.02419434 178.89432739 -153.02419434 178.89432739 -154.08203125 179.765625 C-154.69280518 180.26868164 -155.3035791 180.77173828 -155.93286133 181.29003906 C-156.61501709 181.85432617 -157.29717285 182.41861328 -158 183 C-159.05638672 183.70930664 -160.11277344 184.41861328 -161.20117188 185.14941406 C-164.50053749 188.50979376 -164.69692035 189.87074321 -164.7552948 194.38439941 C-164.7367897 195.19598511 -164.71828461 196.0075708 -164.69921875 196.84375 C-164.70581009 197.69046265 -164.71240143 198.53717529 -164.7191925 199.4095459 C-164.73664234 202.10716998 -164.71471113 204.80248609 -164.6875 207.5 C-164.67618404 210.19705105 -164.67357242 212.89341438 -164.6879425 215.5904541 C-164.6953041 217.26550986 -164.68720164 218.94072515 -164.6615448 220.61560059 C-164.66547955 227.64185832 -167.06796273 231.34657188 -171.9375 236.375 C-172.60652344 237.08398438 -173.27554688 237.79296875 -173.96484375 238.5234375 C-176 240 -176 240 -177.92944336 239.90405273 C-180.90119616 238.60651699 -181.61897426 236.83268638 -183.1640625 234.01171875 C-183.72867188 232.99529297 -184.29328125 231.97886719 -184.875 230.93164062 C-185.4525 229.86107422 -186.03 228.79050781 -186.625 227.6875 C-187.50285156 226.09905273 -187.50285156 226.09905273 -188.3984375 224.47851562 C-190.6708422 220.35326718 -192.91960345 216.22592178 -195 212 C-199.08587857 213.64419692 -201.93426201 216.56811762 -205.0625 219.5625 C-209.9100246 224.12140062 -214.87354605 228.42688367 -220.0625 232.59765625 C-223.55942882 235.4575116 -226.9691758 238.40775885 -230.375 241.375 C-239.78134073 249.56297069 -249.2753081 257.63166399 -258.9453125 265.5078125 C-262.68153765 268.55603711 -266.40369562 271.62109139 -270.125 274.6875 C-270.84405518 275.27974365 -271.56311035 275.8719873 -272.30395508 276.48217773 C-276.04406626 279.5630235 -279.78267225 282.64567911 -283.51953125 285.73046875 C-290.1038357 291.16354973 -296.68910636 296.59038005 -303.375 301.8984375 C-305.44823794 303.55826192 -307.5084888 305.2306757 -309.5625 306.9140625 C-317.11847465 313.10135103 -324.75547696 319.14226688 -332.54614258 325.03149414 C-338.63299689 329.65879208 -344.53310916 334.49415727 -350.38061523 339.41967773 C-351.04391846 339.97469971 -351.70722168 340.52972168 -352.390625 341.1015625 C-352.96844727 341.58963379 -353.54626953 342.07770508 -354.14160156 342.58056641 C-359.01565565 346.30333972 -362.04461281 347.36981959 -368.26953125 347.29296875 C-368.95053391 347.28872391 -369.63153656 347.28447906 -370.33317566 347.28010559 C-372.49336459 347.2634061 -374.65259642 347.22577312 -376.8125 347.1875 C-378.28318958 347.17244174 -379.75389389 347.15875534 -381.22460938 347.14648438 C-384.81671357 347.11353214 -388.40826326 347.06181173 -392 347 C-390.66779391 343.92694067 -389.37899234 342.23134039 -386.68359375 340.2578125 C-386.01038086 339.75612549 -385.33716797 339.25443848 -384.64355469 338.73754883 C-383.91555664 338.20540771 -383.18755859 337.6732666 -382.4375 337.125 C-376.2436139 332.50073399 -370.18771739 327.7616149 -364.25 322.8125 C-359.32134165 318.71117822 -354.36149016 314.68389685 -349.25 310.8125 C-343.70746738 306.59685798 -338.39564576 302.16829917 -333.109375 297.640625 C-330.32785189 295.26281619 -327.4842365 292.97150549 -324.625 290.6875 C-318.67104869 285.84611186 -313.12730697 280.59686092 -307.55078125 275.33203125 C-304.78919904 272.72729936 -301.97883738 270.19129259 -299.125 267.6875 C-293.59745825 262.76279417 -288.42666478 257.47932779 -283.23876953 252.2019043 C-279.22995128 248.14392395 -275.12258225 244.29732109 -270.79931641 240.57666016 C-268.41926444 238.49112751 -266.20700413 236.26665289 -264 234 C-261.18593951 231.10988382 -258.30870543 228.37633146 -255.25390625 225.74609375 C-250.61005454 221.71880785 -246.2714371 217.41849276 -241.9375 213.0625 C-241.17373047 212.30259766 -240.40996094 211.54269531 -239.62304688 210.75976562 C-232.79314039 203.9181741 -226.48191572 196.9736956 -221 189 C-221.60996826 188.62713867 -222.21993652 188.25427734 -222.84838867 187.87011719 C-225.63024888 186.16690511 -228.40888906 184.45850732 -231.1875 182.75 C-232.14720703 182.16347656 -233.10691406 181.57695313 -234.09570312 180.97265625 C-244.56310091 174.52560848 -244.56310091 174.52560848 -247 172 C-247.546875 169.48046875 -247.546875 169.48046875 -247 167 C-245.453125 165.05078125 -245.453125 165.05078125 -243.25 163.3125 C-242.55390625 162.73113281 -241.8578125 162.14976562 -241.140625 161.55078125 C-234.33896438 158.19224982 -226.67512256 157.95179916 -219.1953125 157.74609375 C-205.32709884 157.65993625 -205.32709884 157.65993625 -193.45703125 151.515625 C-190.36490932 148.01601097 -187.82660714 144.20597877 -185.39550781 140.22607422 C-183.28599001 136.86103165 -180.80935954 133.83164223 -178.3125 130.75 C-177.42981827 129.61940308 -176.54829482 128.48790084 -175.66796875 127.35546875 C-172.46463825 123.28618036 -169.0951011 119.36244171 -165.7265625 115.42993164 C-162.59002665 111.75013582 -159.70232542 108.00689631 -157 104 C-164.72693534 98.04767182 -172.86458248 92.83787095 -181.10473633 87.63500977 C-188.04542529 83.25120313 -194.94226266 78.8058795 -201.8125 74.3125 C-202.77454346 73.68375977 -203.73658691 73.05501953 -204.7277832 72.40722656 C-206.60606753 71.17953102 -208.48424462 69.95167139 -210.36230469 68.72363281 C-216.89180364 64.45685545 -223.43367054 60.20989737 -230 56 C-230.6388916 55.58975586 -231.2777832 55.17951172 -231.93603516 54.75683594 C-233.87010063 53.51907323 -235.80851882 52.28859604 -237.75 51.0625 C-238.69939453 50.46211914 -238.69939453 50.46211914 -239.66796875 49.84960938 C-243.59368732 47.40185402 -247.57987443 45.10702831 -251.63671875 42.8828125 C-252.59803711 42.35163818 -253.55935547 41.82046387 -254.54980469 41.27319336 C-256.44452932 40.23276079 -258.34738296 39.20696905 -260.25878906 38.19750977 C-261.12084961 37.72369873 -261.98291016 37.2498877 -262.87109375 36.76171875 C-263.64380615 36.34881592 -264.41651855 35.93591309 -265.21264648 35.51049805 C-267 34 -267 34 -267.84375 31.45410156 C-268 29 -268 29 -266.62890625 26.97265625 C-265.94699219 26.34230469 -265.26507812 25.71195312 -264.5625 25.0625 C-263.82773437 24.381875 -263.09296875 23.70125 -262.3359375 23 C-255.58407695 17.21914281 -251.24104531 13.57980917 -242 14 C-239.34539905 14.51645975 -236.78712088 15.08563916 -234.17700195 15.765625 C-233.42442549 15.95472946 -232.67184902 16.14383392 -231.89646721 16.33866882 C-229.40405693 16.9674999 -226.91496533 17.60852713 -224.42578125 18.25 C-222.64843284 18.70177552 -220.87094863 19.15301706 -219.09333801 19.60375977 C-196.10258803 25.45135961 -173.16773802 31.51950593 -150.23022461 37.57177734 C-145.38044395 38.85117885 -140.52960902 40.12651691 -135.67812538 41.39944458 C-133.86421699 41.87626211 -132.0507152 42.35462961 -130.23766136 42.83468628 C-115.51106844 48.07870487 -115.51106844 48.07870487 -101.02758789 48.15846252 C-99.27604884 46.96276349 -97.90429066 45.65530168 -96.4375 44.125 C-95.33050076 43.08349304 -94.22241931 42.0431352 -93.11328125 41.00390625 C-92.31784912 40.22877686 -92.31784912 40.22877686 -91.50634766 39.43798828 C-89.48320665 37.50665919 -87.32833074 35.78350958 -85.125 34.0625 C-82.25488228 31.79515337 -79.40030593 29.51325059 -76.57421875 27.19140625 C-60.23729396 13.82326457 -21.78170496 -16.4834524 0 0 Z " fill="#1869C6" transform="translate(939,340)"/>
<path d="M0 0 C0.66402832 -0.00365067 1.32805664 -0.00730133 2.01220703 -0.01106262 C4.21469519 -0.01918467 6.41645001 -0.00552354 8.61889648 0.0090332 C10.16332499 0.00955253 11.70775415 0.00903201 13.25218201 0.00752258 C16.50139149 0.00761244 19.75035362 0.01805188 22.99951172 0.03613281 C27.1107201 0.0585364 31.22155819 0.05941759 35.3328104 0.05261517 C38.53243642 0.04922325 41.7319823 0.05600616 44.93159294 0.0657444 C46.44343581 0.06952927 47.95528773 0.07077336 49.46713448 0.06915855 C57.70539256 0.06769057 65.83669554 0.37955082 74.03271484 1.25048828 C74.76203752 1.325703 75.49136019 1.40091772 76.24278355 1.47841167 C91.52231498 3.26135595 105.68450069 10.38229308 115.42749023 22.37231445 C126.91726363 39.08656741 131.07415368 59.15499143 127.70874023 79.20043945 C124.74380478 94.42254425 118.96758479 106.77579119 105.73999023 115.80981445 C102.39687826 117.88019783 98.99697046 119.72486204 95.42749023 121.37231445 C96.67185073 125.40295239 98.14814586 128.95177488 100.22827148 132.6184082 C100.78740234 133.61018066 101.3465332 134.60195313 101.92260742 135.6237793 C102.52234375 136.6751709 103.12208008 137.7265625 103.73999023 138.80981445 C104.35648438 139.89987793 104.97297852 140.98994141 105.6081543 142.11303711 C106.896225 144.38963481 108.18646101 146.66500865 109.47875977 148.93920898 C111.38462817 152.29680375 113.28080836 155.65966819 115.17358398 159.0246582 C116.34140618 161.09895947 117.50936911 163.17318151 118.67749023 165.24731445 C119.22574463 166.22112061 119.77399902 167.19492676 120.33886719 168.19824219 C120.84764404 169.09873291 121.3564209 169.99922363 121.88061523 170.92700195 C122.32566406 171.71574707 122.77071289 172.50449219 123.22924805 173.31713867 C124.23357436 175.03971791 125.32142992 176.71322399 126.42749023 178.37231445 C126.3141584 181.43227389 125.37802148 182.42426551 123.24780273 184.66137695 C122.35834961 185.43223633 121.46889648 186.2030957 120.55249023 186.99731445 C119.66819336 187.77333008 118.78389648 188.5493457 117.87280273 189.34887695 C111.86370622 194.32126033 107.11272552 193.77303493 99.55249023 193.80981445 C98.3678418 193.84268555 97.18319336 193.87555664 95.96264648 193.90942383 C87.37927564 193.96264653 87.37927564 193.96264653 83.45483398 191.52856445 C80.54300053 186.99530544 78.17740132 182.29692552 75.86499023 177.43481445 C71.34345215 168.14851559 66.64036586 159.0098107 61.57324219 150.00854492 C59.02308001 145.44968475 56.71321055 140.99039187 54.94482422 136.06884766 C53.65239095 133.15901636 52.42755036 130.88250192 50.42749023 128.37231445 C46.97525636 127.4702343 46.97525636 127.4702343 43.20092773 127.5168457 C41.30093018 127.45460815 41.30093018 127.45460815 39.36254883 127.39111328 C38.39397949 127.38490967 37.42541016 127.37870605 36.42749023 127.37231445 C36.43193146 128.1696701 36.43637268 128.96702576 36.44094849 129.7885437 C36.48097856 137.29314723 36.5114508 144.79769919 36.53111458 152.30238152 C36.54156367 156.16086242 36.55574324 160.01925531 36.57836914 163.87768555 C36.60005763 167.59943637 36.61205038 171.3211024 36.61724472 175.04291153 C36.62094769 176.46472637 36.62817843 177.88653642 36.63895035 179.30831528 C36.65341143 181.29558559 36.65430669 183.28294076 36.65454102 185.27026367 C36.65898224 186.40277557 36.66342346 187.53528748 36.66799927 188.70211792 C36.42749023 191.37231445 36.42749023 191.37231445 34.42749023 193.37231445 C32.60595703 193.62628174 32.60595703 193.62628174 30.37670898 193.63110352 C29.54244385 193.63740784 28.70817871 193.64371216 27.84863281 193.65020752 C26.94653076 193.64615906 26.04442871 193.6421106 25.11499023 193.63793945 C24.19032959 193.63985291 23.26566895 193.64176636 22.31298828 193.64373779 C20.35603565 193.64510011 18.39907399 193.64140041 16.44213867 193.63305664 C13.43965434 193.6223578 10.43776837 193.63295036 7.43530273 193.64575195 C5.53686391 193.64443037 3.63842546 193.64186799 1.73999023 193.63793945 C0.83788818 193.64198792 -0.06421387 193.64603638 -0.99365234 193.65020752 C-2.24505005 193.64075104 -2.24505005 193.64075104 -3.52172852 193.63110352 C-4.25738037 193.62951233 -4.99303223 193.62792114 -5.75097656 193.62628174 C-7.57250977 193.37231445 -7.57250977 193.37231445 -9.57250977 191.37231445 C-9.77208104 188.88329143 -9.8462128 186.50516154 -9.83320618 184.01478577 C-9.83703172 183.24748577 -9.84085727 182.48018577 -9.84479874 181.68963426 C-9.85516186 179.10470709 -9.85113038 176.52000068 -9.84716797 173.93505859 C-9.85151262 172.08743584 -9.85669494 170.2398149 -9.86265564 168.39219666 C-9.87608355 163.36332823 -9.8766201 158.33453477 -9.87409234 153.3056519 C-9.87302518 149.11307937 -9.87789944 144.92052216 -9.88269776 140.7279529 C-9.89380609 130.83994529 -9.89422293 120.95197567 -9.88818359 111.06396484 C-9.88214163 100.85061965 -9.89445745 90.63741214 -9.91575366 80.42409045 C-9.93334546 71.66652961 -9.93937485 62.9090127 -9.93611592 54.15143484 C-9.93429903 48.91598771 -9.9369795 43.68063879 -9.95083046 38.4452076 C-9.96336486 33.52290619 -9.96150649 28.60082004 -9.94841957 23.67852211 C-9.94604462 21.86887796 -9.94882112 20.05921886 -9.95704269 18.24959183 C-9.96743468 15.78508362 -9.95947101 13.32130789 -9.94673157 10.85682678 C-9.95410585 10.13543127 -9.96148014 9.41403575 -9.96907789 8.67077976 C-9.93762816 5.79217213 -9.89260863 3.83680906 -8.23256302 1.4279213 C-5.56098581 -0.27090082 -3.12997982 -0.00164126 0 0 Z " fill="#1869C6" transform="translate(523.572509765625,401.627685546875)"/>
<path d="M0 0 C1.07245972 -0.0038269 2.14491943 -0.00765381 3.24987793 -0.01159668 C5.51604146 -0.01431716 7.78223631 -0.00694653 10.04833984 0.00976562 C13.51861528 0.03117206 16.98682027 0.00996725 20.45703125 -0.015625 C22.65885874 -0.01298175 24.86068494 -0.00785683 27.0625 0 C28.10112183 -0.00809692 29.13974365 -0.01619385 30.20983887 -0.02453613 C31.17764282 -0.01192749 32.14544678 0.00068115 33.14257812 0.01367188 C34.41687683 0.01844543 34.41687683 0.01844543 35.71691895 0.02331543 C38.92415699 0.72721951 40.02442863 1.9559187 42.03125 4.53125 C43.26431274 7.39334106 43.26431274 7.39334106 44.31103516 10.76611328 C44.50742616 11.38679782 44.70381716 12.00748236 44.9061594 12.64697552 C45.55614174 14.71164692 46.18816728 16.78136683 46.8203125 18.8515625 C47.2797886 20.32363565 47.74036995 21.79536421 48.20198059 23.26676941 C49.44285664 27.2329675 50.66830519 31.20377999 51.89094162 35.17563248 C53.17495985 39.33756015 54.47310119 43.49507794 55.76977539 47.65307617 C58.13086181 55.23129742 60.4799907 62.81316133 62.82395077 70.39669514 C65.20072802 78.08441191 67.593139 85.76720764 69.98828125 93.44921875 C73.28063333 104.01490428 76.55702045 114.58542433 79.82241821 125.1594696 C82.04696991 132.35958242 84.28407626 139.55567387 86.52937317 146.74934387 C88.04806121 151.61842804 89.56108364 156.48926141 91.07302856 161.36044312 C91.78809869 163.65988866 92.50555972 165.95859222 93.22555542 168.25650024 C94.21155262 171.40470104 95.18882876 174.55548253 96.1640625 177.70703125 C96.45681564 178.63427002 96.74956879 179.56150879 97.05119324 180.5168457 C97.44568413 181.80075195 97.44568413 181.80075195 97.84814453 183.1105957 C98.07809113 183.84832718 98.30803772 184.58605865 98.54495239 185.34614563 C99.09444728 187.81521739 99.1817617 190.00932895 99.03125 192.53125 C97.49416814 194.06833186 96.06795968 193.68088484 93.92626953 193.70825195 C92.61953781 193.72750481 92.61953781 193.72750481 91.28640747 193.74714661 C89.86459671 193.75822701 89.86459671 193.75822701 88.4140625 193.76953125 C87.44596649 193.777603 86.47787048 193.78567474 85.48043823 193.79399109 C83.42756959 193.80784884 81.37467774 193.81856339 79.32177734 193.82641602 C76.17631576 193.84364012 73.03190182 193.88751241 69.88671875 193.93164062 C67.89584109 193.94176597 65.90495447 193.95028257 63.9140625 193.95703125 C62.49832443 193.98329338 62.49832443 193.98329338 61.0539856 194.01008606 C54.5816186 193.9885063 54.5816186 193.9885063 52.04125977 191.87792969 C50.85825805 189.12931656 49.86054703 186.42354134 48.98828125 183.55859375 C48.63701172 182.41197266 48.28574219 181.26535156 47.92382812 180.08398438 C47.56740234 178.89095703 47.21097656 177.69792969 46.84375 176.46875 C46.47572266 175.27185547 46.10769531 174.07496094 45.72851562 172.84179688 C43.03125 163.94932746 43.03125 163.94932746 43.03125 160.53125 C23.56125 160.53125 4.09125 160.53125 -15.96875 160.53125 C-16.95875 164.49125 -17.94875 168.45125 -18.96875 172.53125 C-19.93102734 175.74134707 -20.91252262 178.91681607 -21.96875 182.09375 C-22.21625 182.87298828 -22.46375 183.65222656 -22.71875 184.45507812 C-22.96625 185.20337891 -23.21375 185.95167969 -23.46875 186.72265625 C-23.6853125 187.38467041 -23.901875 188.04668457 -24.125 188.72875977 C-25.13590867 190.8883485 -26.12107036 192.01892683 -27.96875 193.53125 C-29.99992371 193.89201355 -29.99992371 193.89201355 -32.34838867 193.87182617 C-33.22907516 193.87159958 -34.10976166 193.87137299 -35.01713562 193.87113953 C-35.96409805 193.85565567 -36.91106049 193.84017181 -37.88671875 193.82421875 C-38.85909988 193.81997391 -39.83148102 193.81572906 -40.83332825 193.81135559 C-43.94124966 193.79455315 -47.04852434 193.75689779 -50.15625 193.71875 C-52.26236043 193.7037052 -54.36848102 193.69001644 -56.47460938 193.67773438 C-61.63957238 193.64464444 -66.80405151 193.59285109 -71.96875 193.53125 C-71.42506407 185.6703267 -69.38727071 178.65147883 -67.0234375 171.15625 C-66.61688189 169.846439 -66.21107771 168.53639456 -65.80596924 167.22613525 C-64.94321465 164.44098333 -64.07550186 161.65744713 -63.20367432 158.87512207 C-61.82693365 154.48136654 -60.46111074 150.08426603 -59.09716797 145.68652344 C-57.71170638 141.22110512 -56.32557801 136.75590098 -54.93545532 132.29193115 C-51.24891458 120.45314125 -47.61154764 108.59977898 -43.99591064 96.73913574 C-39.15691434 80.8736707 -34.28296252 65.01894961 -29.36712646 49.17712402 C-28.78393049 47.29721939 -28.20141182 45.41710446 -27.61968994 43.53674316 C-26.03087948 38.4034455 -24.42681711 33.27537656 -22.79980469 28.15405273 C-22.21975167 26.32340949 -21.64391075 24.49142861 -21.07128906 22.65844727 C-20.16412871 19.76297382 -19.24022166 16.87331748 -18.3125 13.984375 C-17.89961731 12.65221954 -17.89961731 12.65221954 -17.47839355 11.29315186 C-14.14062315 1.04199893 -10.47003921 -0.08162269 0 0 Z " fill="#1869C6" transform="translate(267.96875,401.46875)"/>
<path d="M0 0 C6.74425389 -0.10149262 13.48831055 -0.17150433 20.2331543 -0.21972656 C22.52717448 -0.23983106 24.82114348 -0.26711891 27.11499023 -0.30175781 C30.41402826 -0.35032559 33.71238822 -0.37298077 37.01171875 -0.390625 C38.03585373 -0.41127014 39.05998871 -0.43191528 40.11515808 -0.45318604 C44.42523834 -0.4545416 47.21033957 -0.44254712 51.01806641 1.69140625 C53.14460231 4.16843551 54.41034238 6.33025975 55.69921875 9.328125 C56.1777832 10.41955811 56.65634766 11.51099121 57.14941406 12.63549805 C57.65698242 13.82828369 58.16455078 15.02106934 58.6875 16.25 C59.23380471 17.50563833 59.78169979 18.76058573 60.33105469 20.01489258 C61.22493341 22.05668633 62.11755334 24.09896238 63.00540161 26.14338684 C66.7620179 34.78955859 70.64737653 43.37774391 74.52456665 51.97033691 C75.74174265 54.66919092 76.956581 57.36908493 78.1706543 60.06933594 C78.9210485 61.73763592 79.67145482 63.40593045 80.421875 65.07421875 C80.76920181 65.84688583 81.11652863 66.61955292 81.47438049 67.41563416 C83.18595091 71.23193754 83.18595091 71.23193754 85 75 C85.45717407 73.93531494 85.45717407 73.93531494 85.92358398 72.84912109 C92.50674372 57.53905162 99.16466867 42.26209717 105.93655396 27.03448486 C106.68398493 25.3520308 107.42950624 23.66872699 108.17306519 21.98455811 C109.22577306 19.60180483 110.28575497 17.22241776 111.34765625 14.84375 C111.65764557 14.13864288 111.96763489 13.43353577 112.28701782 12.70706177 C117.12515373 1.93742313 117.12515373 1.93742313 121 0 C122.51164392 -0.08977728 124.02720179 -0.11757433 125.54150391 -0.11352539 C126.48232819 -0.11344986 127.42315247 -0.11337433 128.39248657 -0.11329651 C129.41023163 -0.10813522 130.42797668 -0.10297394 131.4765625 -0.09765625 C132.51694672 -0.0962413 133.55733093 -0.09482635 134.62924194 -0.09336853 C137.96119021 -0.08775866 141.29307195 -0.07520447 144.625 -0.0625 C146.88020736 -0.05748627 149.13541578 -0.05292314 151.390625 -0.04882812 C156.92710614 -0.03778603 162.46354832 -0.02103827 168 0 C169.10234894 4.58308323 168.70210647 6.40908637 166.44921875 10.6015625 C165.86197021 11.71354004 165.27472168 12.82551758 164.66967773 13.97119141 C164.00899351 15.18915022 163.34826626 16.40708569 162.6875 17.625 C162.00629948 18.90589162 161.32672882 20.18765119 160.64868164 21.47021484 C159.57060994 23.50838783 158.49122228 25.54577832 157.40660095 27.58047485 C153.55150246 34.8126916 149.81265114 42.10319438 146.078125 49.39819336 C144.17612957 53.11139976 142.26782902 56.82136 140.359375 60.53125 C139.98864868 61.25203735 139.61792236 61.97282471 139.23596191 62.7154541 C134.74294443 71.447879 130.22441505 80.16702173 125.69921875 88.8828125 C125.1683667 89.94846436 124.63751465 91.01411621 124.09057617 92.11206055 C122.48356095 95.23197125 120.63668806 98.13885167 118.73168945 101.08520508 C107.64137975 119.0341886 107.25396036 134.55751781 107.76037598 155.04937744 C107.86569282 159.87459091 107.88320542 164.70085135 107.90924358 169.5270319 C107.93022985 173.26633812 107.9652135 177.00350474 108.04560852 180.74205017 C108.0624897 181.75863708 108.0624897 181.75863708 108.07971191 182.79576111 C108.11047242 184.62070796 108.1504017 186.44549378 108.19099426 188.27024841 C108 191 108 191 106 193 C104.1784668 193.25396729 104.1784668 193.25396729 101.94921875 193.25878906 C101.11495361 193.26509338 100.28068848 193.27139771 99.42114258 193.27789307 C98.51904053 193.2738446 97.61693848 193.26979614 96.6875 193.265625 C95.76283936 193.26753845 94.83817871 193.2694519 93.88549805 193.27142334 C91.92854541 193.27278566 89.97158376 193.26908596 88.01464844 193.26074219 C85.0121641 193.25004334 82.01027813 193.26063591 79.0078125 193.2734375 C77.10937367 193.27211591 75.21093522 193.26955354 73.3125 193.265625 C72.41039795 193.26967346 71.5082959 193.27372192 70.57885742 193.27789307 C69.32745972 193.26843658 69.32745972 193.26843658 68.05078125 193.25878906 C67.31512939 193.25719788 66.57947754 193.25560669 65.8215332 193.25396729 C64 193 64 193 62 191 C61.84265137 188.37550354 61.84265137 188.37550354 61.96679688 184.99438477 C62.02296928 183.09014992 62.02296928 183.09014992 62.08027649 181.14744568 C62.10356836 180.46379881 62.12686024 179.78015194 62.15085793 179.0757885 C63.91387152 132.26491875 63.91387152 132.26491875 45.27490234 90.32910156 C41.79048169 85.35591098 39.19200978 79.92879592 36.5 74.5 C35.55308376 72.67843051 34.60145687 70.85929997 33.64453125 69.04296875 C33.19932129 68.19395996 32.75411133 67.34495117 32.29541016 66.47021484 C31.8679248 65.65504395 31.44043945 64.83987305 31 64 C30.19139605 62.45443242 29.38280203 60.90885965 28.57421875 59.36328125 C22.32874258 47.44439461 15.97428262 35.5840539 9.61328125 23.7265625 C9.02369629 22.62086914 8.43411133 21.51517578 7.82666016 20.37597656 C6.55833582 18.03189891 5.2724192 15.71063484 3.95068359 13.39746094 C3.45546455 12.5172377 3.45546455 12.5172377 2.95024109 11.61923218 C2.03391247 9.99326972 1.10557457 8.37409216 0.17651367 6.75537109 C-1.11993835 3.71910683 -0.94376807 3.0076942 0 0 Z " fill="#1869C6" transform="translate(41,402)"/>
<path d="M0 0 C1.06838608 -0.00563965 2.13677216 -0.0112793 3.23753357 -0.01708984 C4.4095784 -0.01304138 5.58162323 -0.00899292 6.78918457 -0.00482178 C8.02350723 -0.00832642 9.2578299 -0.01183105 10.52955627 -0.01544189 C13.91592153 -0.02274375 17.30204288 -0.02102146 20.68839455 -0.01468372 C24.23041744 -0.00962408 27.77242983 -0.01431508 31.31445312 -0.01745605 C37.26291782 -0.0210958 43.21133288 -0.01629638 49.15979004 -0.0067749 C56.03933233 0.00410969 62.91875608 0.00058412 69.7982955 -0.01042771 C75.7023983 -0.01950035 81.60646539 -0.02078599 87.51057291 -0.01555037 C91.03794708 -0.01243054 94.56526551 -0.01202169 98.09263611 -0.01862335 C102.02408465 -0.02546715 105.95540014 -0.0159844 109.88684082 -0.00482178 C111.05888565 -0.00887024 112.23093048 -0.0129187 113.43849182 -0.01708984 C115.04107094 -0.00863037 115.04107094 -0.00863037 116.67602539 0 C118.07084515 0.00113108 118.07084515 0.00113108 119.49384308 0.002285 C121.8380127 0.25396729 121.8380127 0.25396729 124.8380127 2.25396729 C125.12953291 5.21007787 125.23384908 7.95337774 125.20129395 10.91021729 C125.2020417 12.19732605 125.2020417 12.19732605 125.20280457 13.51043701 C125.20046214 15.32617506 125.19072372 17.14191624 125.17419434 18.95758057 C125.15060669 21.74286823 125.15363127 24.52719894 125.16027832 27.31256104 C125.1547016 29.07428551 125.14759175 30.83600595 125.13879395 32.59771729 C125.13970535 33.434198 125.14061676 34.27067871 125.14155579 35.13250732 C125.06903248 41.0229475 125.06903248 41.0229475 122.8380127 43.25396729 C119.75276331 43.42950148 116.75837068 43.48519525 113.6739502 43.44927979 C112.31313828 43.44503494 112.31313828 43.44503494 110.92483521 43.44070435 C108.02076147 43.42948881 105.11699358 43.40438191 102.2130127 43.37896729 C100.24687131 43.36893925 98.2807251 43.3598131 96.3145752 43.35162354 C91.48893611 43.32954501 86.66352629 43.29500593 81.8380127 43.25396729 C81.83985628 44.01487608 81.84169987 44.77578487 81.84359932 45.55975151 C81.8877209 64.05340882 81.92084123 82.54705565 81.94163704 101.04075432 C81.9519604 109.98407758 81.96604091 118.92736576 81.9888916 127.8706665 C82.00879311 135.66341554 82.02172142 143.45613919 82.02618968 151.24891293 C82.02880258 155.37714412 82.03496585 159.50530264 82.04947281 163.63351059 C82.06300563 167.51581367 82.06724411 171.39801386 82.06422806 175.28033829 C82.06478016 176.70822966 82.06878317 178.13612432 82.07642365 179.56399536 C82.08631712 181.50757382 82.0828033 183.45120698 82.07852173 185.39480591 C82.08036531 186.48436522 82.0822089 187.57392452 82.08410835 188.69650078 C81.8380127 191.25396729 81.8380127 191.25396729 79.8380127 193.25396729 C77.96505737 193.49447632 77.96505737 193.49447632 75.66369629 193.48101807 C74.37258438 193.48079147 74.37258438 193.48079147 73.0553894 193.4805603 C71.6600145 193.46507645 71.6600145 193.46507645 70.2364502 193.44927979 C69.28485016 193.44644989 68.33325012 193.44362 67.35281372 193.44070435 C64.30608677 193.42948718 61.25965116 193.40437991 58.2130127 193.37896729 C56.15051693 193.36893947 54.08801658 193.35981327 52.0255127 193.35162354 C46.96290002 193.32954283 41.90050579 193.29500258 36.8380127 193.25396729 C35.4897702 190.5574823 35.69780365 188.4531929 35.67979431 185.43276978 C35.67000549 184.1931398 35.66021667 182.95350983 35.65013123 181.67631531 C35.64422666 180.29513588 35.63841624 178.91395606 35.63269043 177.53277588 C35.62311443 176.08422057 35.61310451 174.63566807 35.60269165 173.18711853 C35.57560639 169.24729792 35.55461647 165.30746528 35.53468966 161.36760283 C35.51285241 157.25292985 35.48545268 153.1382941 35.45863342 149.02365112 C35.40867591 141.22868367 35.36374845 133.43369559 35.32061106 125.63868773 C35.27126479 116.76575057 35.216337 107.89285074 35.16093147 99.01994967 C35.04706449 80.76465686 34.94023574 62.50932883 34.8380127 44.25396729 C33.60647461 44.23414795 32.37493652 44.21432861 31.1060791 44.19390869 C26.54743609 44.11797547 21.98911743 44.02923966 17.43078613 43.93658447 C15.45591626 43.89824379 13.48097533 43.86339998 11.50598145 43.83209229 C8.67108724 43.78655182 5.8366844 43.72854013 3.0020752 43.66802979 C1.67232162 43.65070297 1.67232162 43.65070297 0.31570435 43.63302612 C-0.91534531 43.60322159 -0.91534531 43.60322159 -2.17126465 43.57281494 C-3.25714371 43.55282944 -3.25714371 43.55282944 -4.36495972 43.53244019 C-6.1619873 43.25396729 -6.1619873 43.25396729 -8.1619873 41.25396729 C-8.37422224 38.33663297 -8.46594894 35.51664309 -8.46276855 32.59771729 C-8.46705368 31.73964478 -8.47133881 30.88157227 -8.47575378 29.99749756 C-8.48150139 28.18179203 -8.48199419 26.36606346 -8.47766113 24.550354 C-8.47449978 21.7649633 -8.49795908 18.98063291 -8.52331543 16.19537354 C-8.52558816 14.43365613 -8.52629204 12.67193586 -8.52526855 10.91021729 C-8.5344783 10.07373657 -8.54368805 9.23725586 -8.55317688 8.37542725 C-8.53430176 6.02935791 -8.53430176 6.02935791 -8.1619873 2.25396729 C-4.85036064 0.04621617 -3.85110215 0.00312291 0 0 Z " fill="#186AC6" transform="translate(368.1619873046875,401.74603271484375)"/>
<path d="M0 0 C3.61235084 1.96323415 6.89907394 4.29828083 10.21826172 6.71875 C12.20766763 8.14933403 14.22644059 9.53016257 16.25390625 10.90625 C22.26579165 14.98906306 22.26579165 14.98906306 24.7265625 16.6796875 C25.31002441 17.07913574 25.89348633 17.47858398 26.49462891 17.89013672 C28 19 28 19 30 21 C30.24050903 23.55630493 30.24050903 23.55630493 30.22705078 26.82666016 C30.22689972 28.04777496 30.22674866 29.26888977 30.22659302 30.52700806 C30.21637903 31.86436118 30.20594702 33.20171265 30.1953125 34.5390625 C30.1915828 35.90383701 30.18873563 37.26861419 30.18673706 38.63339233 C30.17909714 42.22720723 30.15944572 45.82086073 30.1373291 49.41461182 C30.11687832 53.08107317 30.107737 56.74756057 30.09765625 60.4140625 C30.07620003 67.60944862 30.04205992 74.8047017 30 82 C26.73196523 82.67526124 23.60167135 83.16226727 20.26953125 83.359375 C5.71339688 84.36200665 -3.06082818 86.19206973 -13.28515625 97.20703125 C-13.85105469 97.79871094 -14.41695312 98.39039063 -15 99 C-15.33 99 -15.66 99 -16 99 C-16.09266438 86.83034121 -16.16374712 74.66076629 -16.20724869 62.49082661 C-16.22812688 56.8398677 -16.25644921 51.1891501 -16.30175781 45.53833008 C-16.34520662 40.08536086 -16.36913536 34.63262381 -16.37950897 29.17949486 C-16.38690203 27.0986484 -16.40133886 25.0178147 -16.42292023 22.93706703 C-16.451941 20.02327604 -16.45595651 17.11044538 -16.45410156 14.1965332 C-16.46848267 13.33554016 -16.48286377 12.47454712 -16.49768066 11.58746338 C-16.46995082 7.56412166 -16.30259292 5.49514088 -14.15911865 1.98771667 C-9.93310862 -1.90281088 -5.25551636 -1.48932289 0 0 Z " fill="#1869C6" transform="translate(693,403)"/>
<path d="M0 0 C4.95 -0.0825 9.9 -0.165 15 -0.25 C17.31837891 -0.30462402 17.31837891 -0.30462402 19.68359375 -0.36035156 C28.3593295 -0.43031717 34.68761916 -0.07927917 41.3125 6.1875 C46.14718037 14.24530062 47.20888888 22.49636523 45.49609375 31.7109375 C44.03512931 37.27095076 42.22000972 41.06771821 38 45 C31.92612278 48.14540071 26.59837701 49.13102649 19.82421875 49.09765625 C18.25933716 49.09390991 18.25933716 49.09390991 16.6628418 49.09008789 C14.69504761 49.07643188 14.69504761 49.07643188 12.6875 49.0625 C8.500625 49.041875 4.31375 49.02125 0 49 C0 32.83 0 16.66 0 0 Z " fill="#FDFEFE" transform="translate(560,444)"/>
<path d="M0 0 C0.90105469 0.00902344 1.80210937 0.01804687 2.73046875 0.02734375 C3.41753906 0.03894531 4.10460937 0.05054688 4.8125 0.0625 C-10.05827389 17.47218651 -25.83712291 33.88171615 -42.04492188 50.05029297 C-44.71602608 52.7159681 -47.3816501 55.38704162 -50.046875 58.05859375 C-51.7705123 59.78157122 -53.49445925 61.50423898 -55.21875 63.2265625 C-56.00221802 64.01205475 -56.78568604 64.797547 -57.59289551 65.60684204 C-61.73814502 69.73463658 -65.95722866 73.70082525 -70.41711426 77.48788452 C-72.26563908 79.13199842 -73.94321153 80.87446832 -75.625 82.6875 C-82.60257531 89.72822079 -92.06957233 93.76904362 -101.93359375 94.2421875 C-105.35753331 94.24908365 -108.76638326 94.1955982 -112.1875 94.0625 C-107.86720479 88.84046094 -103.28784646 84.15877245 -98.3125 79.5625 C-97.30896484 78.62470703 -97.30896484 78.62470703 -96.28515625 77.66796875 C-92.2712463 73.9324803 -88.18647604 70.29052849 -84.04931641 66.69238281 C-81.4300605 64.39941763 -78.87130552 62.04783861 -76.3125 59.6875 C-70.9722981 54.77329711 -65.58864673 49.90968296 -60.1875 45.0625 C-59.341875 44.299375 -58.49625 43.53625 -57.625 42.75 C-53.89920418 39.38769645 -50.16915064 36.03508221 -46.375 32.75 C-42.79098685 29.62937441 -39.29949854 26.41540112 -35.8125 23.1875 C-35.25087158 22.66929687 -34.68924316 22.15109375 -34.1105957 21.6171875 C-31.56643052 19.26906685 -29.03087754 16.91434981 -26.515625 14.53515625 C-19.03454617 7.56631689 -10.69031608 -0.13883527 0 0 Z " fill="#1766C5" transform="translate(737.1875,592.9375)"/>
<path d="M0 0 C0.66 0 1.32 0 2 0 C6.51832033 14.24861322 10.79638036 28.55418813 14.82159424 42.94934082 C15.27327217 44.56432815 15.72667797 46.17883324 16.18182373 47.79284668 C16.82475033 50.07652102 17.46040452 52.3620899 18.09375 54.6484375 C18.28711945 55.33281891 18.48048889 56.01720032 18.67971802 56.72232056 C19.57506351 59.98976629 20 62.57305688 20 66 C7.79 66 -4.42 66 -17 66 C-14.74982136 54.74910681 -14.74982136 54.74910681 -13.50366211 50.04711914 C-13.08829445 48.47112694 -13.08829445 48.47112694 -12.66453552 46.86329651 C-12.37176224 45.76501022 -12.07898895 44.66672394 -11.77734375 43.53515625 C-11.47180069 42.38003036 -11.16625763 41.22490448 -10.85145569 40.03477478 C-10.20991411 37.61159583 -9.56694316 35.18879489 -8.92260742 32.76635742 C-7.93421203 29.05013772 -6.95012989 25.33279648 -5.96679688 21.61523438 C-5.34139437 19.25514246 -4.71575187 16.89511412 -4.08984375 14.53515625 C-3.79504623 13.42270035 -3.50024872 12.31024445 -3.19651794 11.16407776 C-2.92275833 10.13548141 -2.64899872 9.10688507 -2.36694336 8.04711914 C-2.12648788 7.14240372 -1.88603241 6.23768829 -1.63829041 5.30555725 C-1.14444357 3.52174202 -0.5853103 1.7559309 0 0 Z " fill="#FCFDFE" transform="translate(280,458)"/>
<path d="M0 0 C-3.97717868 10.32216606 -9.68263444 18.74385116 -17 27 C-17.59941406 27.68320312 -18.19882812 28.36640625 -18.81640625 29.0703125 C-23.64161863 34.24258192 -29.28560137 37.76186712 -36 40 C-38.39490986 40.06970052 -40.79167691 40.08448003 -43.1875 40.0625 C-44.45980469 40.05347656 -45.73210938 40.04445313 -47.04296875 40.03515625 C-48.50669922 40.01775391 -48.50669922 40.01775391 -50 40 C-47.32954705 36.45580438 -44.62217832 33.72120866 -41.125 31 C-36.55770716 27.34616573 -32.25385193 23.51290314 -28 19.5 C-22.20583493 14.0463421 -16.24082906 8.9419248 -10 4 C-9.13117187 3.26394531 -8.26234375 2.52789063 -7.3671875 1.76953125 C-4.63888922 -0.26993925 -3.32470504 -0.37996629 0 0 Z " fill="#1666C5" transform="translate(746,630)"/>
<path d="M0 0 C2.31 1.98 4.62 3.96 7 6 C8.9198437 7.44050368 10.85588855 8.85984809 12.8125 10.25 C17.79904306 13.79904306 17.79904306 13.79904306 20 16 C19.57589844 16.4125 19.15179687 16.825 18.71484375 17.25 C14.89108199 21.01493466 11.30345245 24.88213446 7.87109375 29.0078125 C5.46851633 31.56588032 2.69601774 33.75331855 0 36 C0 24.12 0 12.24 0 0 Z " fill="#1967C5" transform="translate(677,518)"/>
<path d="M0 0 C0.66 0.33 1.32 0.66 2 1 C-4.49888593 8.17914315 -11.07301909 15.22695199 -18 22 C-18.66 21.67 -19.32 21.34 -20 21 C-13.80281523 13.54084305 -6.89583408 6.802507 0 0 Z " fill="#0B5AC0" transform="translate(656,592)"/>
<path d="M0 0 C0.66 0.33 1.32 0.66 2 1 C-1.63702095 5.27349961 -5.35421019 9.45992168 -9.25 13.5 C-10.21679688 14.50546875 -10.21679688 14.50546875 -11.203125 15.53125 C-13 17 -13 17 -16 17 C-14.47048225 13.21916961 -12.18109791 11.14801362 -9.125 8.5 C-5.975585 5.75483827 -2.92073411 2.98865816 0 0 Z " fill="#115FC2" transform="translate(675,574)"/>
<path d="M0 0 C0.66 0.66 1.32 1.32 2 2 C1.566875 2.48210937 1.13375 2.96421875 0.6875 3.4609375 C0.130625 4.09257812 -0.42625 4.72421875 -1 5.375 C-1.556875 6.00148438 -2.11375 6.62796875 -2.6875 7.2734375 C-4.20172487 8.90389833 -4.20172487 8.90389833 -4 11 C-0.535 12.98 -0.535 12.98 3 15 C2.01 15.495 2.01 15.495 1 16 C-0.9453125 15.00390625 -0.9453125 15.00390625 -3.125 13.5625 C-3.84945312 13.08941406 -4.57390625 12.61632812 -5.3203125 12.12890625 C-5.87460937 11.75636719 -6.42890625 11.38382812 -7 11 C-6.68232368 5.59950264 -3.80003673 3.47662935 0 0 Z " fill="#125CC1" transform="translate(678,362)"/>
<path d="M0 0 C0.66 0.66 1.32 1.32 2 2 C0.56354149 3.60509934 -0.87420706 5.20904424 -2.3125 6.8125 C-3.11300781 7.70582031 -3.91351562 8.59914063 -4.73828125 9.51953125 C-6.45224581 11.39926786 -8.17877604 13.22592747 -10 15 C-10.66 14.67 -11.32 14.34 -12 14 C-8.04 9.38 -4.08 4.76 0 0 Z " fill="#0F5CC1" transform="translate(765,466)"/>
<path d="M0 0 C0.66 0.33 1.32 0.66 2 1 C0.02 3.31 -1.96 5.62 -4 8 C-1.03 8.495 -1.03 8.495 2 9 C2 9.33 2 9.66 2 10 C-1.96 10 -5.92 10 -10 10 C-7.02911382 6.00073014 -3.87051275 3.07881696 0 0 Z " fill="#0B51BC" transform="translate(706,660)"/>
</svg>
